<svg xmlns="http://www.w3.org/2000/svg" width="87" height="33" fill="none"><path fill="#282E38" d="M.58 16.153c.07-.085.077-.19.089-.293.029-.237.096-.465.17-.691.13.069.247.162.39.211.323.112.618.28.9.476.385.267.736.578 1.099.873.274.222.451.53.633.825a.47.47 0 0 1 .07.382c-.063.24.138.424.392.397.178-.018.178-.018.238.147.066.18.116.365.193.542.17.397.234.816.237 1.245.001.15-.067.292-.044.444a.58.58 0 0 1-.143.475c-.115.138-.147.305-.155.477a1.82 1.82 0 0 1-.47 1.138c-.231.263-.424.55-.607.846-.202-.164-.322-.395-.472-.6a16.073 16.073 0 0 1-1.649-2.761 10.19 10.19 0 0 1-.778-2.493c-.012-.063-.007-.128-.01-.192-.004-.051-.033-.076-.083-.078v-1.37zM10.9 3.02c.047-.084.134-.127.206-.18a190.65 190.65 0 0 1 1.86-1.385c.291-.213.592-.413.889-.62h.043c.338.568.693 1.125 1.011 1.705.127.229.258.453.357.698.1.247.252.472.365.715.218.47.385.962.553 1.452.041.12.033.25.082.37.06.148.107.3.159.451-.105-.006-.21.013-.316-.026-.2-.074-.406-.128-.605-.202-.09-.033-.153-.019-.206.051-.144.19-.36.24-.57.306-.145.045-.272.054-.386-.074a.69.69 0 0 0-.187-.138 4.732 4.732 0 0 1-.854-.628c-.345-.306-.653-.652-1.003-.954-.292-.25-.49-.588-.768-.852-.176-.165-.375-.304-.535-.487-.054-.06-.107-.115-.096-.203zm75.325 12.324a.36.36 0 0 1 .041-.004v.343l-.041-.014v-.325zm-.002 11.126.043-.005v.3h-.018l-.017-.008-.008-.287zm-59.302-11.3c.14.452.195.916.22 1.387.062 1.163-.212 2.26-.655 3.32-.177.427-.39.835-.612 1.242-.215.394-.449.774-.683 1.156-.03.048-.07.089-.105.133a.417.417 0 0 0-.17.008 1.43 1.43 0 0 1-.593.016 1.86 1.86 0 0 0-.717.01 1.853 1.853 0 0 1-.422.045 4.71 4.71 0 0 1-.993-.097c-.161-.034-.323-.018-.484-.06-.31-.083-.596-.224-.89-.347-.092-.038-.183-.09-.282-.093a2.673 2.673 0 0 1-.684-.129c-.292-.089-.294-.08-.219-.35.174-.241.173-.288-.019-.512-.009-.01-.016-.023-.024-.035.001-.07.001-.14.004-.21.006-.136.033-.254.2-.272.043-.004.05-.043.055-.08h.085c.211-.01.341-.138.408-.317.064-.173.005-.327-.133-.458-.163-.155-.341-.138-.53-.072-.155-.08-.302-.18-.466-.232-.203-.065-.344-.199-.465-.352-.073-.092-.187-.158-.22-.274-.038-.128-.085-.254-.09-.39.114-.178.253-.34.354-.528a.934.934 0 0 1 .188-.224c.193-.184.46-.256.643-.45.026-.028.06-.036.096-.013.303.195.662.248.985.393.182.081.268.047.326-.136.079-.245.208-.466.31-.7.06-.133.146-.263.137-.42-.007-.136.053-.212.185-.243.076-.018.147-.056.223-.071.178-.035.338-.106.482-.213.197-.146.429-.217.652-.305.118.048.24.087.342.168.044.035.099.043.162.032.27-.044.552-.02.806-.153.017-.01.043 0 .063-.006.205-.057.406-.108.562-.278.234-.253.384-.262.7-.117.387.177.78.348 1.226.227.013-.004.028 0 .042 0zm-2.629 3.508c.226-.001.313-.087.311-.306a.328.328 0 0 0-.313-.334c-.194-.006-.289.112-.287.357.002.244.044.284.29.283z"/><path fill="#282E38" d="M2.329 11.823c.051-.142.154-.253.234-.378.407-.636.866-1.236 1.336-1.827.189-.238.189-.242.471-.12.69.295 1.35.645 1.984 1.048.433.275.858.562 1.261.88.557.44 1.104.893 1.596 1.405.668.696 1.27 1.444 1.792 2.256.015.023.02.052.03.079-.216.02-.219.02-.27.225-.098.402-.228.793-.444 1.148a1.55 1.55 0 0 0-.235.933c.005.074.03.159-.041.22-.135-.218-.26-.439-.214-.711.002-.014.004-.035-.004-.042-.144-.132-.14-.348-.273-.486-.034-.036-.082-.071-.093-.114-.057-.209-.234-.332-.355-.491-.114-.152-.246-.293-.353-.453-.114-.17-.118-.17-.209.026a.292.292 0 0 1-.074.103c-.094.079-.113.173-.074.287a.466.466 0 0 1 0 .335c-.112.263-.085.538-.04.798.056.327.01.647.01.97 0 .007-.005.014-.006.02a2.13 2.13 0 0 0-.002.678c.029.216.046.433-.052.648-.095.208-.15.43-.068.662.016.045.007.099.008.149.001.087-.05.114-.126.096a.35.35 0 0 1-.117-.05c-.14-.099-.282-.073-.426-.012-.22.092-.36.345-.305.55.064.242.326.437.556.417.314-.028.314-.028.239.269-.004.014-.012.026-.015.04-.06.248-.155.488-.187.742a.86.86 0 0 1-.113.362c-.115.182-.23.356-.199.589.008.057-.035.12-.055.182-.084.257-.247.482-.308.748A.631.631 0 0 1 7 24.31c-.118.12-.266.206-.363.354-.115.177-.298.274-.492.356-.261.11-.529.214-.685.481-.038.066-.06.146-.127.195-.206-.151-.348-.363-.519-.548.025-.074.032-.161.078-.219.171-.216.339-.438.582-.587a.95.95 0 0 0 .382-.419c.048-.104.111-.199.187-.284a1.89 1.89 0 0 0 .406-.735c.087-.293.27-.548.393-.828.143-.327.247-.665.246-1.027 0-.186.038-.365.083-.544.015-.06.06-.118.03-.185-.04-.089-.032-.183-.026-.274.023-.392-.017-.782-.055-1.17-.018-.195-.025-.393-.063-.59-.06-.318-.158-.63-.15-.964.002-.15-.034-.308-.033-.465 0-.06-.03-.109-.05-.162-.112-.298-.248-.592-.207-.924l.072-.105c.208-.311.093-.8-.229-.986-.311-.181-.593-.132-.87.063-.07-.004-.16.02-.193-.058-.062-.151-.186-.25-.282-.372-.19-.238-.391-.467-.59-.697-.094-.108-.231-.167-.322-.28-.19-.236-.375-.478-.604-.679-.203-.176-.398-.366-.651-.471-.224-.094-.416-.237-.62-.362z"/><path fill="#282E38" d="M10.043 17.693c.072-.062.046-.147.041-.221a1.55 1.55 0 0 1 .235-.933c.216-.355.346-.746.445-1.148.05-.206.053-.205.27-.225.28.419.537.85.756 1.305.152.314.306.628.44.95.11.259.182.533.287.793.259.641.426 1.307.564 1.982.217 1.057.29 2.126.27 3.204a14.461 14.461 0 0 1-.739 4.273c-.013.04-.032.078-.049.118-.105-.006-.216.023-.315-.017-.187-.075-.387-.066-.578-.112a.954.954 0 0 0-.018-.169c-.055-.296-.2-.56-.291-.843-.052-.164-.142-.24-.302-.285a.366.366 0 0 0-.246.022c-.307.116-.528-.08-.769-.206-.027-.014-.043-.056-.056-.088a.891.891 0 0 0-.236-.327.366.366 0 0 1-.136-.321.545.545 0 0 0-.045-.25c-.143-.373-.18-.77-.252-1.159-.065-.347-.1-.7-.159-1.048a2.998 2.998 0 0 1-.004-1.12c.088-.429.165-.86.25-1.29.042-.208.076-.417.141-.621.065-.201.166-.403.15-.617-.025-.332.126-.642.095-.973-.008-.079.055-.145.087-.216.067-.149.15-.291.164-.458zM65.38 8.888c-.032.068-.067.134-.097.203-.919 2.126-1.837 4.253-2.758 6.378-.1.23-.043.204-.303.216-.125.006-.174-.053-.222-.152-.506-1.062-1.015-2.122-1.524-3.182-.573-1.195-1.145-2.39-1.72-3.586-.02-.04-.021-.1-.11-.119v6.772c0 .29.03.264-.262.264-.345.001-.345 0-.345-.353V7.372c0-.05.002-.1 0-.15-.006-.08.028-.117.11-.116.414 0 .828.002 1.242-.001.102-.001.129.068.163.14.273.573.548 1.145.822 1.717l2.182 4.549c.01.019.024.035.045.063.074-.056.086-.143.117-.214.726-1.674 1.448-3.35 2.171-5.024.156-.36.315-.719.464-1.081.044-.108.1-.154.22-.152.393.007.785.001 1.178.003.173 0 .175.003.175.179v2.46l.001 3.871c0 .4.025.798.104 1.191.045.224.109.443.222.644.136.241.326.411.6.48.118.028.176.163.129.277-.012.029-.033.045-.064.046-.454.011-.898-.045-1.32-.223a1.647 1.647 0 0 1-.823-.748c-.191-.35-.27-.733-.311-1.125a8.303 8.303 0 0 1-.039-.854V8.899a1.75 1.75 0 0 1-.047-.011zM6.618 15.77c-.04.332.095.626.207.924.02.053.05.102.05.162 0 .157.035.315.032.465-.007.334.091.646.151.964.038.197.045.395.063.59.038.388.078.778.055 1.17-.006.091-.015.185.026.274.03.067-.015.124-.03.185a2.22 2.22 0 0 0-.083.544c0 .362-.103.7-.246 1.027-.123.28-.306.535-.393.829-.082.28-.216.519-.406.734-.076.085-.14.18-.187.284a.95.95 0 0 1-.382.42c-.243.148-.41.37-.582.586-.046.058-.053.145-.078.22-.252-.22-.438-.5-.658-.749-.179-.2-.34-.418-.509-.626-.031-.039-.067-.074-.076-.126.183-.295.376-.582.606-.845.284-.324.451-.702.471-1.14.008-.171.04-.337.155-.476a.581.581 0 0 0 .143-.475c-.023-.152.045-.294.044-.444a3.174 3.174 0 0 0-.237-1.244c-.077-.177-.127-.362-.193-.543-.06-.165-.06-.165-.238-.146-.254.026-.455-.158-.393-.398a.47.47 0 0 0-.07-.382c-.181-.295-.358-.602-.632-.825-.363-.295-.714-.606-1.1-.873a3.727 3.727 0 0 0-.9-.475c-.142-.05-.258-.143-.389-.212.19-.844.52-1.633.93-2.392.153-.281.308-.561.47-.837.026-.042.044-.09.09-.117.204.125.397.269.62.362.254.105.449.295.651.472.23.2.414.443.604.679.09.112.228.17.321.279.2.23.4.46.59.698.097.12.222.22.284.371.032.079.122.055.192.058a.786.786 0 0 0-.215.662c.03.299.283.554.583.579.25.02.48-.014.659-.213zM10.9 3.02c-.012.087.041.142.095.202.16.183.36.322.535.487.279.264.476.602.768.852.35.302.658.648 1.003.954.264.233.541.457.854.628a.69.69 0 0 1 .188.138c.113.128.24.12.384.074.21-.067.427-.116.571-.306.053-.07.117-.084.206-.05.2.073.406.127.605.2.106.04.21.021.316.027.151.423.24.862.341 1.298.144.617.244 1.241.331 1.868.018.126.018.255.026.383a1.761 1.761 0 0 0-.627.181c-.165.079-.319.174-.517.174-.172 0-.197.05-.197.23 0 .064.008.126.019.19.025.152.067.302.067.459 0 .08-.023.14-.102.164a4 4 0 0 1-.799.187 1.415 1.415 0 0 0-.125-.338c-.103-.219-.213-.435-.296-.661a.44.44 0 0 0-.233-.261c-.25-.118-.499-.244-.793-.196-.097.016-.2-.003-.299.003-.2.014-.357-.067-.494-.206-.069-.071-.133-.146-.225-.194a5.8 5.8 0 0 1-.724-.448c-.242-.175-.46-.366-.555-.674-.074-.24-.245-.43-.455-.577-.355-.246-.697-.51-1.029-.789-.183-.154-.35-.335-.573-.437-.205-.094-.362-.246-.52-.402-.181-.18-.345-.379-.561-.523a.405.405 0 0 1-.133-.19c.4-.394.836-.748 1.265-1.109.49-.41.993-.806 1.489-1.21.06-.05.117-.103.193-.129zm.34 4.685c-.033.35.226.61.596.624.326.012.613-.35.615-.614.003-.38-.34-.616-.621-.63-.313-.015-.612.296-.59.62zm-.187-1.437c-.168 0-.282.112-.281.279 0 .13.168.283.303.277.115-.005.255-.17.254-.3-.002-.158-.106-.255-.276-.256z"/><path fill="#282E38" d="M7.952 5.467a.406.406 0 0 0 .133.19c.215.144.38.343.56.523.158.156.316.308.521.402.223.102.39.283.573.438.331.278.674.542 1.029.789.21.146.38.336.454.577.096.308.314.498.555.673.23.166.472.317.724.448.092.048.157.123.226.194.136.14.293.22.494.207.099-.007.201.012.299-.004.294-.048.543.078.792.196a.44.44 0 0 1 .234.26c.083.227.192.443.296.662.051.11.102.218.125.338.01.339-.202.398-.473.378-.014-.002-.027-.01-.04-.013-.214-.04-.425-.075-.554.167-.013.024-.041.039-.059.061-.1.13-.188.266-.201.436a2.156 2.156 0 0 1-.434-.17c-.2-.106-.416-.183-.624-.275-.089-.04-.18-.04-.227.047-.064.12-.188.146-.277.221-.128.107-.238.073-.344-.01-.272-.21-.606-.313-.885-.514-.142-.103-.191-.077-.336.036-.092.071-.174.178-.316.14-.034-.01-.072-.033-.096.005-.025.042 0 .082.031.114.045.047.088.094.136.137.057.052.086.112.07.19-.229-.145-.423-.335-.635-.502a18.077 18.077 0 0 0-2.254-1.506 17.13 17.13 0 0 0-2.837-1.284c-.139-.048-.148-.077-.053-.188.12-.14.246-.277.37-.412a38.93 38.93 0 0 1 1.76-1.805c.388-.368.783-.727 1.174-1.09.027-.024.05-.051.089-.056zm5.944 6.031c.001-.206-.102-.306-.317-.306-.166 0-.32.149-.318.305.003.184.148.334.32.332a.325.325 0 0 0 .315-.33zm13.025 3.672c-.014 0-.03-.004-.042 0-.446.12-.839-.05-1.227-.227-.316-.145-.465-.136-.699.117-.156.17-.357.22-.562.278-.02.006-.046-.003-.063.006-.254.133-.536.11-.806.153-.063.01-.118.003-.162-.031-.102-.082-.224-.12-.342-.17-.016-.12.091-.207.086-.325-.017-.415.07-.842-.14-1.235-.052-.096-.026-.175.04-.253.123-.146.249-.291.363-.444a.957.957 0 0 1 .206-.21c.22-.16.245-.297.122-.544-.02-.039-.042-.075-.058-.115a.596.596 0 0 0-.257-.3 2.253 2.253 0 0 1-.323-.242c-.084-.075-.17-.166-.163-.287.009-.152-.056-.28-.115-.405-.197-.421-.522-.57-.882-.549-.326.019-.612.155-.78.477-.062.12-.163.255-.31.275-.174.024-.365.04-.53-.007-.392-.113-.819-.101-1.18-.325-.005-.003-.014-.001-.021-.002-.001-.441.007-.883-.006-1.325a23.615 23.615 0 0 0-.264-2.997 22.477 22.477 0 0 0-.44-2.177c-.005-.019 0-.04 0-.06.047-.017.07.013.096.035a52.25 52.25 0 0 1 2.502 2.237c1.446 1.388 2.802 2.856 3.952 4.503.634.908 1.189 1.862 1.607 2.89.145.356.27.72.37 1.091.015.054.02.112.028.168zm-7.072 5.133c-.005.036-.013.074-.055.079-.167.017-.195.136-.2.271-.003.07-.003.14-.004.211-.05 0-.1-.004-.15-.002-.201.007-.289.116-.274.34.01.166.148.273.324.249.049-.007.095-.026.143-.04-.076.27-.073.261.218.35.225.068.45.12.685.129.099.003.19.054.282.093.294.122.58.263.89.346.16.043.322.026.484.061.325.07.658.097.992.097.143 0 .283-.013.422-.045a1.86 1.86 0 0 1 .717-.01c.194.03.398.037.594-.017a.415.415 0 0 1 .17-.007c-.125.25-.305.463-.466.688a23.985 23.985 0 0 1-1.307 1.634c-.023.026-.053.046-.08.07-.2 0-.408-.036-.596.011-.25.062-.5.053-.736.016-.354-.056-.708-.018-1.061-.063s-.678.133-.978.304a1.95 1.95 0 0 1-.699.235c-.135.02-.266.034-.389.095-.14-.032-.274-.095-.422-.085-.075-.212-.186-.413-.194-.645-.005-.132-.085-.207-.204-.238-.093-.023-.169-.076-.243-.127-.178-.123-.354-.102-.542-.03-.25.097-.502.185-.737.32-.201.116-.226.097-.35-.091-.015-.022-.043-.035-.064-.052-.006-.086-.018-.17-.018-.256 0-.678-.09-1.349-.192-2.017a.475.475 0 0 1 .064-.342c.336-.563.631-1.149.917-1.739a22.9 22.9 0 0 0 .919-2.209c.029-.08.045-.165.095-.236a.143.143 0 0 1 .123.07c.122.214.332.334.512.486.004.136.051.263.088.39.034.116.148.182.221.274.122.153.263.287.466.352.163.051.31.153.465.232-.037.043-.072.087-.11.128a.38.38 0 0 0-.101.293c.008.197.133.34.38.427zm18.186-9.048c.17.04.321.072.472.11.18.046.353.112.52.193.576.278.924.727 1.008 1.364.057.428.038.854-.13 1.26-.209.51-.595.844-1.083 1.072-.483.226-1 .325-1.527.38-.611.065-1.225.046-1.838.048-.55.002-1.098 0-1.647 0-.222 0-.223 0-.223-.22V8.685a2.56 2.56 0 0 0-.07-.635c-.098-.374-.336-.566-.72-.585-.05-.003-.1 0-.15-.002-.157-.004-.157-.005-.162-.152-.006-.203-.006-.205.192-.205 1.127-.001 2.254-.006 3.381.001.6.004 1.197.044 1.782.196.418.11.811.269 1.147.55.38.319.581.73.643 1.216.098.775-.215 1.355-.845 1.786a2.858 2.858 0 0 1-.568.295c-.057.023-.126.025-.182.104zM35.06 13.29v1.519c0 .21 0 .211.193.257.6.14 1.203.147 1.802.007.877-.206 1.36-.757 1.396-1.631.032-.774-.294-1.378-1.072-1.669a2.988 2.988 0 0 0-.663-.157c-.484-.064-.97-.033-1.454-.039-.2-.002-.202.001-.202.195v1.518zm.691-2.277h.107c.35.006.7-.004 1.039-.106.443-.133.809-.374 1.002-.806.33-.736.253-1.837-.872-2.285-.58-.232-1.179-.253-1.787-.133-.177.035-.18.033-.18.219v1.753c0 .4-.002.799 0 1.198.002.154.006.157.156.16.178.002.357 0 .535 0zm-25.708 6.68c-.015.167-.097.31-.164.458-.032.07-.095.137-.087.215.03.33-.12.641-.095.973.016.214-.086.416-.15.617-.065.204-.099.413-.14.62-.086.43-.163.862-.25 1.292-.078.375-.06.746.003 1.12.06.348.094.7.16 1.048.072.388.108.785.25 1.158.031.08.055.162.046.25a.365.365 0 0 0 .136.322.888.888 0 0 1 .236.326c.013.032.029.074.056.088.24.125.462.323.77.206a.368.368 0 0 1 .245-.022c.16.045.25.122.302.285.09.284.236.547.291.844a.864.864 0 0 1 .018.168c-.22.115-.402.286-.607.425-.147.099-.268.14-.444.064-.285-.123-.568-.083-.829.09-.053.036-.104.077-.163.1a.475.475 0 0 0-.285.295c-.074.196-.12.406-.295.548-.204-.096-.348-.27-.515-.412a47.177 47.177 0 0 1-2.803-2.63c-.14-.142-.264-.298-.395-.447.067-.049.088-.129.127-.195.156-.267.424-.37.684-.481.195-.082.377-.179.493-.355.096-.148.244-.235.363-.355a.634.634 0 0 0 .186-.305c.061-.266.224-.49.308-.748.02-.061.063-.125.056-.182-.032-.233.083-.407.199-.589a.86.86 0 0 0 .113-.362c.032-.254.126-.494.186-.742.004-.014.012-.026.016-.04.075-.297.075-.297-.239-.269-.23.02-.492-.175-.556-.417-.055-.205.085-.457.305-.55.144-.06.285-.087.426.011a.339.339 0 0 0 .117.051c.076.018.127-.009.126-.096-.001-.05.008-.104-.008-.149-.083-.232-.028-.454.067-.662.099-.215.081-.431.053-.648-.03-.227-.04-.452.002-.677 0-.007.006-.014.006-.02-.001-.324.045-.644-.01-.97-.046-.261-.072-.536.04-.799a.466.466 0 0 0 0-.335c-.04-.114-.02-.208.073-.287a.29.29 0 0 0 .075-.103c.09-.195.094-.196.209-.025.107.16.238.3.353.452.12.16.298.282.354.49.012.044.06.08.094.115.133.138.128.354.273.486.007.007.006.028.003.042-.045.273.08.495.215.713zm52.743 5.368v-3.208c0-.214-.011-.427-.06-.637-.095-.419-.291-.595-.714-.643-.05-.006-.1-.006-.15-.008-.165-.007-.165-.006-.165-.169-.002-.176-.002-.178.176-.179h1.37c.568.026.825.246.94.803.063.31.065.623.068.937.004.627 0 1.254.001 1.882 0 .231-.022.223.216.223h3.168c.21 0 .211-.001.211-.207v-3.38c0-.288-.025-.257.269-.258h1.027c.171.001.173.003.174.18v6.695c0 .25.01.499.073.742.098.38.3.554.686.595.057.006.114.008.171.012.15.009.15.009.153.161.002.183.002.186-.192.186-.428.001-.856.005-1.284 0-.667-.009-.938-.256-1.035-.918-.038-.262-.039-.526-.04-.789-.004-.727-.002-1.454-.002-2.181 0-.05-.002-.1 0-.15.002-.07-.03-.106-.1-.105h-3.383c-.082-.005-.117.034-.112.114.003.05 0 .1 0 .15v3.615c0 .05-.003.1 0 .15.006.082-.03.115-.112.115H62.9c-.082 0-.119-.03-.114-.113.003-.05 0-.1 0-.15v-3.465zm23.439-7.717v.325c-.549.025-1.098.034-1.646-.004-.501-.033-.737-.27-.835-.763a3.492 3.492 0 0 1-.058-.68v-2.438l-.002-.15c0-.07-.03-.106-.102-.105h-3.36c-.183.003-.186.003-.186.193v3.7c0 .308.009.258-.267.26-.357.002-.714-.003-1.07.002-.113.002-.157-.038-.147-.148.005-.05.001-.1.001-.15V8.671a2.31 2.31 0 0 0-.074-.634c-.106-.375-.34-.557-.73-.573h-.085c-.198-.003-.273-.11-.208-.295.017-.05.056-.059.1-.06h.256c.407.002.814.003 1.22.008.085.001.17.013.255.028.336.06.546.262.64.586.066.227.09.46.097.696.024.756.006 1.511.012 2.267.002.278-.032.267.263.267h3.125c.05 0 .1-.002.15 0 .082.002.115-.04.112-.119-.002-.05 0-.1 0-.15v-3.42c.004-.156.004-.16.151-.161.393-.003.785-.003 1.177 0 .147 0 .148.004.152.158v.171c0 2.175 0 4.349.002 6.523 0 .178.015.356.029.533.005.07.019.142.037.21.104.409.335.599.758.625.077.005.156-.012.233.014z"/><path fill="#282E38" d="M18.438 18.207c-.18-.152-.39-.272-.512-.485a.143.143 0 0 0-.123-.072c.13-.428.26-.855.386-1.284.297-1.011.511-2.04.658-3.083.107-.753.182-1.51.2-2.271.003-.07-.018-.143.029-.207.007 0 .016-.001.021.002.361.224.788.212 1.18.325.165.048.356.031.53.007.148-.02.248-.154.31-.275.168-.322.454-.458.78-.477.36-.02.686.128.882.549.059.125.124.253.115.405-.007.121.08.212.163.287.1.09.208.172.323.242.12.074.207.169.257.3.016.04.038.076.058.115.123.247.098.384-.122.544a.957.957 0 0 0-.206.21c-.114.153-.24.298-.363.444-.066.078-.092.157-.04.253.21.393.123.82.14 1.235.005.118-.102.205-.086.326-.223.088-.455.159-.652.305a1.175 1.175 0 0 1-.482.213c-.076.015-.147.053-.223.071-.132.031-.192.107-.185.244.009.156-.077.286-.136.42-.103.233-.232.454-.31.7-.06.182-.145.216-.327.135-.323-.145-.682-.198-.985-.393-.035-.023-.07-.015-.096.013-.183.194-.45.266-.643.45a.934.934 0 0 0-.188.224c-.1.189-.24.35-.353.528zm31.721-4.509v-.685c0-.078-.014-.157.11-.163.173-.008.211.004.236.132.064.344.152.682.292 1.004.348.799.96 1.23 1.824 1.32.35.037.697.034 1.04-.05.05-.012.097-.025.144-.041.873-.294 1.172-1.213.642-1.97-.174-.25-.405-.44-.652-.613-.456-.32-.948-.581-1.423-.871-.443-.271-.908-.51-1.314-.84-.458-.373-.789-.825-.872-1.424-.153-1.105.324-1.948 1.306-2.363a3.448 3.448 0 0 1 1.23-.256 4.822 4.822 0 0 1 1.891.294c.296.112.573.256.807.473.255.235.394.516.388.869-.007.399 0 .798-.003 1.198-.001.082.044.193-.115.197-.193.005-.21.004-.244-.176a4.451 4.451 0 0 0-.305-.999c-.348-.77-.942-1.194-1.785-1.272-.323-.03-.642-.027-.953.074-.957.311-1.219 1.387-.512 2.102.177.179.378.327.592.455.636.383 1.275.76 1.912 1.14.411.245.813.5 1.158.838.462.453.636 1.003.58 1.634-.08.919-.566 1.545-1.406 1.906-.493.212-1.015.283-1.547.289a4.888 4.888 0 0 1-1.825-.307c-.335-.13-.648-.297-.898-.564a1.017 1.017 0 0 1-.298-.712v-.62zM13.64 12.389c.014-.17.102-.306.202-.436.017-.023.045-.038.058-.062.13-.24.34-.206.553-.167.014.003.027.012.04.013.272.02.484-.038.474-.377a4 4 0 0 0 .799-.187c.08-.025.102-.084.102-.164 0-.157-.042-.307-.067-.46a1.166 1.166 0 0 1-.019-.19c0-.178.025-.23.197-.23.198.001.352-.094.517-.173a1.74 1.74 0 0 1 .627-.18c.05.142.047.294.06.44.084.915.122 1.833.082 2.75a22.018 22.018 0 0 1-.43 3.533 23.61 23.61 0 0 1-.517 2.001 1.54 1.54 0 0 1-.188.442 1.705 1.705 0 0 1-.175-.41c-.073-.305-.2-.59-.307-.883-.12-.328-.25-.649-.519-.889-.044-.039-.044-.128-.127-.117-.055.088-.102.175-.16.255a.99.99 0 0 0-.183.488c-.02.175-.04.361-.127.526-.088-.115-.134-.25-.197-.378a16.814 16.814 0 0 0-.826-1.495c-.018-.03-.03-.064-.045-.096.013-.017.038-.033.038-.05 0-.292.152-.543.222-.816a.502.502 0 0 1 .067-.156.598.598 0 0 0 .08-.507c-.034-.14-.078-.282-.022-.437.053-.147.123-.286.18-.432a.375.375 0 0 0 .008-.287c-.091-.24-.18-.48-.324-.694a.364.364 0 0 1-.073-.175zm55.135 3.293c-.018-.098.03-.157.059-.22 1.189-2.716 2.38-5.43 3.566-8.148.065-.15.134-.224.312-.213.342.022.264-.043.395.27.93 2.221 1.859 4.444 2.787 6.666.09.217.19.43.318.629.225.35.52.606.946.671.115.018.11.087.11.168-.002.084.017.17-.113.188-.89.125-1.818-.035-2.451-.868a3.467 3.467 0 0 1-.451-.823c-.08-.198-.165-.394-.24-.595-.036-.096-.093-.127-.192-.125-.293.005-.585.002-.878.002-.77 0-1.541.004-2.312-.004-.145-.002-.213.045-.27.177-.287.675-.592 1.342-.876 2.02-.07.166-.16.227-.333.208-.126-.014-.253-.003-.377-.003zm1.927-2.994c.081.035.138.028.193.028h2.59c.212 0 .213-.002.132-.195-.431-1.032-.863-2.065-1.296-3.096-.023-.056-.029-.125-.115-.178l-1.504 3.44zm-29.71 2.994.537-1.232c1.039-2.37 2.08-4.738 3.112-7.11.076-.173.158-.277.358-.236a.327.327 0 0 0 .107 0c.11-.014.166.037.206.138.177.436.36.87.541 1.304l2.3 5.503c.114.27.241.532.42.767.207.271.47.46.81.516.13.021.135.086.14.188.006.117-.04.166-.153.18-1.091.135-2.07-.158-2.664-1.268-.168-.315-.291-.65-.42-.982-.05-.128-.114-.17-.248-.17-1.056.006-2.113.006-3.169 0-.136 0-.198.048-.25.17-.292.682-.597 1.358-.887 2.04-.062.148-.14.212-.3.195-.134-.013-.27-.003-.44-.003zm4.934-2.995c-.166-.511-1.356-3.308-1.459-3.427-.045.04-.056.097-.078.148l-1.17 2.684c-.074.17-.147.34-.224.508-.04.086-.01.118.078.116h.086l2.588-.001c.055 0 .113.015.179-.028zm7.518 14.102.68-1.574c.98-2.262 1.962-4.524 2.935-6.789.071-.165.156-.239.33-.21a.275.275 0 0 0 .086 0c.136-.02.2.043.25.167.385.944.776 1.885 1.165 2.827l1.647 3.99c.096.232.207.455.35.66.213.305.487.526.861.583.142.022.123.103.13.195.008.107-.033.152-.14.167-1.055.147-2.02-.149-2.603-1.18-.186-.33-.307-.689-.45-1.038-.083-.2-.082-.2-.291-.2-1.02-.001-2.04.002-3.06-.004-.15-.001-.228.043-.288.185-.283.677-.584 1.348-.867 2.025-.061.146-.134.216-.297.199-.132-.015-.267-.003-.438-.003zm4.895-2.98-1.427-3.451-.044.002-1.486 3.45h2.957zm27.884 2.661.008.287c-.041.048-.102.048-.157.054-1.213.146-2.102-.291-2.626-1.329-.151-.3-.266-.615-.386-.927-.048-.125-.112-.173-.25-.173-1.035.006-2.07.007-3.104 0-.146 0-.215.048-.27.18-.288.682-.59 1.36-.877 2.043-.058.14-.13.201-.284.186-.132-.013-.267-.003-.407-.003-.014-.09.024-.143.048-.199l3.366-7.77c.07-.164.143-.327.21-.492.03-.074.073-.108.159-.113.38-.022.379-.024.525.33l2.734 6.62c.076.184.161.365.261.538.238.41.57.69 1.05.768zm-4.943-6.163-1.507 3.495h2.95l-1.443-3.495zm-48.8 6.482c.306-.711.594-1.379.883-2.046.906-2.093 1.812-4.186 2.72-6.277.126-.29.048-.244.388-.25.021 0 .043.004.064 0 .122-.02.174.043.218.15.286.707.58 1.411.87 2.116l1.943 4.702c.095.231.204.455.346.662.21.306.48.528.854.594.123.022.142.081.144.188.002.118-.043.164-.156.18-1.067.143-2.03-.178-2.593-1.202-.183-.332-.305-.69-.451-1.038-.076-.18-.074-.182-.259-.182-1.035-.001-2.07.003-3.104-.005-.15 0-.212.06-.265.186-.287.676-.584 1.347-.869 2.024-.06.144-.133.217-.297.2-.132-.014-.266-.002-.437-.002zm4.893-2.98-1.446-3.502c-.515 1.189-1.011 2.333-1.506 3.502h2.952zm13.583-1.453c.068-.037.088-.109.124-.168.776-1.264 1.552-2.527 2.322-3.795.08-.132.167-.192.322-.179.162.013.326.003.485.003.035.09-.028.133-.058.184-.899 1.48-1.797 2.962-2.702 4.439a.937.937 0 0 0-.145.521c.007 1.055.003 2.11.003 3.165v.15c.004.083-.036.113-.116.113H49.95c-.082 0-.117-.037-.112-.117.002-.05 0-.1 0-.15 0-1.005-.002-2.01.002-3.016a.642.642 0 0 0-.112-.378c-.676-1.015-1.346-2.033-2.018-3.05-.24-.363-.49-.72-.804-1.024-.276-.268-.58-.487-.97-.548-.13-.02-.11-.107-.11-.19-.002-.092.057-.1.128-.1.442.002.885-.014 1.327.008.476.023.871.247 1.215.567.237.22.43.475.605.746.58.898 1.163 1.795 1.745 2.692.03.046.05.103.11.127zm24.398.009c.049-.074.096-.143.14-.214.763-1.246 1.529-2.49 2.285-3.74.09-.147.184-.214.356-.197.155.015.313.003.469.003.026.092-.04.141-.074.198-.91 1.5-1.82 2.998-2.733 4.495a.658.658 0 0 0-.103.36c.004 1.084.002 2.167.002 3.25 0 .043-.003.086 0 .129.01.099-.028.142-.132.14-.4-.003-.8-.004-1.198.001-.127.002-.135-.063-.135-.16.003-.614.001-1.227.001-1.84 0-.442-.001-.884.002-1.326a.472.472 0 0 0-.082-.28c-.733-1.104-1.461-2.212-2.196-3.316-.253-.38-.533-.74-.9-1.024a1.7 1.7 0 0 0-.706-.338c-.122-.024-.17-.116-.13-.23.018-.052.058-.059.102-.058.47.002.943-.016 1.412.013.459.029.837.263 1.167.575a4 4 0 0 1 .6.75c.58.897 1.163 1.794 1.745 2.69.026.04.046.087.108.119zm-33.532.698V19.96a3.885 3.885 0 0 0-.045-.681c-.087-.478-.329-.69-.815-.714-.028-.002-.057 0-.085-.001-.153-.006-.153-.007-.156-.157-.003-.187-.002-.19.187-.19.435-.002.87-.001 1.306-.001h.042c.6.018.88.27.975.866.034.212.044.425.044.639v6.287c.002.209.002.21.215.21h3.981c.05 0 .1.004.15 0 .106-.01.134.043.132.14-.011.53.074.426-.4.427-1.747.005-3.495.002-5.244.002h-.107c-.177-.003-.18-.003-.18-.175-.002-.335 0-.67 0-1.005v-2.546zm-19.963 3.23c-.141.198-.327.355-.5.521-.468.448-.934.897-1.417 1.326-.84.744-1.683 1.484-2.578 2.163-.192.146-.374.304-.56.459-.04.032-.076.064-.13.067-.183 0-.366.023-.549.036-.339.024-.681.004-1.022.008-.128.002-.183-.055-.182-.177-.012-.12.057-.217.093-.323.222-.65.446-1.297.57-1.974.003-.019.024-.034.037-.05a1.21 1.21 0 0 0 .23-.031c.32-.083.61-.268.961-.243.089.006.226-.008.276-.126.077-.183.205-.34.256-.536.05-.194.175-.292.38-.31.137-.013.285-.032.372-.17.199.044.398.078.593-.018.056-.028.116-.048.174-.072.008.112.08.145.177.134.16-.02.32-.052.48-.067.154-.014.271-.134.42-.143.32-.02.633-.056.928-.19a.347.347 0 0 1 .124-.026c.216-.01.417-.072.609-.169.081-.041.158-.098.258-.09z"/><path fill="#282E38" d="M13.64 12.389a.366.366 0 0 0 .073.175c.145.214.233.454.324.694.038.1.03.188-.009.287-.056.146-.125.285-.178.432-.056.155-.013.298.021.437a.598.598 0 0 1-.08.507.511.511 0 0 0-.067.156c-.07.273-.221.524-.222.817 0 .016-.024.033-.038.049l-.511-.735a16.341 16.341 0 0 0-2.24-2.55c-.124-.116-.265-.216-.374-.348.015-.078-.014-.138-.071-.19-.048-.043-.091-.09-.136-.137-.03-.032-.056-.072-.03-.114.022-.038.061-.015.095-.006.142.04.224-.068.316-.14.145-.112.194-.138.336-.035.279.201.613.303.885.514.106.083.216.117.344.01.09-.075.213-.102.277-.22.047-.088.138-.087.227-.048.208.092.424.17.624.276.14.074.284.126.434.168zm4.455 14.544c-.086.138-.234.157-.371.17-.206.018-.33.116-.38.31-.052.195-.179.353-.256.535-.05.119-.187.133-.276.127-.351-.026-.642.16-.961.243-.078.02-.153.026-.23.03.06-.34.128-.68.181-1.022.068-.433.119-.869.157-1.306.042-.482.037-.963.042-1.445 0-.042.011-.084.017-.126.021.017.05.03.064.052.124.189.15.208.35.092.236-.135.487-.223.737-.32.188-.072.364-.094.543.03.074.05.15.104.242.127.12.03.2.105.204.238.009.232.12.433.194.644-.03.039-.072.037-.115.041a.675.675 0 0 0-.592.451c-.172.462-.067.792.346 1.058l.104.07zm3.764-.64c-.1-.01-.177.048-.258.089a1.517 1.517 0 0 1-.61.17.347.347 0 0 0-.123.025c-.295.134-.609.17-.928.19-.15.01-.266.129-.42.143-.16.015-.32.048-.48.067-.097.011-.17-.022-.177-.134.037-.042.073-.086.112-.127.273-.287.302-.682.094-1.017-.078-.127-.203-.194-.294-.3.123-.062.254-.077.389-.096.244-.035.476-.11.698-.235.3-.17.626-.349.978-.304.354.045.708.007 1.061.063.237.037.486.046.736-.016.189-.047.397-.01.597-.012-.278.37-.596.701-.922 1.027-.153.153-.271.341-.453.467zM9.048 29.184c.174-.142.22-.353.295-.548a.476.476 0 0 1 .285-.296c.058-.022.11-.063.163-.099.26-.173.544-.213.828-.09.176.076.298.034.444-.065.205-.138.387-.31.608-.424.19.046.39.036.577.112.1.04.21.011.315.016-.068.327-.212.627-.336.933-.09.222-.18.445-.303.651-.236-.01-.463.03-.695.074-.27.05-.48.157-.668.36-.118.128-.258.276-.472.25-.344-.242-.65-.53-.98-.789-.026-.02-.041-.057-.061-.085zm5.484-11.272c.087-.165.107-.35.127-.526a.99.99 0 0 1 .183-.488c.058-.08.105-.167.16-.255.083-.011.083.078.127.117.27.24.4.561.52.89.106.292.233.577.306.882.035.146.104.279.175.41a.597.597 0 0 1-.037.23c-.17.487-.355.969-.563 1.435-.055.009-.058-.027-.064-.05a17.13 17.13 0 0 0-.908-2.565c-.011-.025-.018-.053-.026-.08zm.388 12.784c0 .122.054.179.182.177.341-.004.684.016 1.023-.008.183-.013.365-.036.55-.036-.128.176-.32.28-.488.405-.65.483-1.311.948-1.97 1.418-.09.065-.186.12-.285.184-.036-.08.011-.126.037-.17.343-.592.619-1.216.87-1.85.018-.048.035-.093.082-.12z"/><path fill="#282E38" d="M10.09 30.058c.213.026.353-.122.47-.25.188-.203.398-.31.669-.36.232-.044.46-.083.695-.074-.056.208-.17.388-.27.574a15.61 15.61 0 0 1-.445.773c-.081.134-.117.146-.232.054-.296-.239-.615-.45-.888-.717zm9.759-9.755c-.248-.088-.373-.23-.382-.428a.38.38 0 0 1 .1-.292c.039-.041.075-.085.111-.128.19-.066.367-.084.53.072.138.13.198.285.133.457-.067.18-.197.308-.408.318h-.084zm4.443-1.625c-.245.001-.287-.04-.289-.283-.002-.245.093-.363.287-.357a.328.328 0 0 1 .313.334c.002.219-.085.305-.31.306zm-4.659 2.734c-.048.013-.095.032-.143.04-.176.024-.314-.084-.324-.25-.015-.224.073-.333.274-.34.05-.002.1.001.15.002a.271.271 0 0 0 .024.035c.191.224.193.27.019.513zM6.618 15.77c-.178.2-.409.233-.66.213a.659.659 0 0 1-.583-.58.784.784 0 0 1 .215-.661c.278-.195.56-.244.871-.063.322.187.437.675.23.986-.024.036-.05.07-.073.105zm4.622-8.065c-.022-.324.277-.635.59-.62.282.014.624.25.62.63-.001.264-.288.626-.614.614-.37-.013-.629-.274-.596-.624zm-.187-1.437c.17.001.274.098.276.256.001.13-.139.295-.254.3-.135.006-.302-.147-.303-.277-.001-.167.113-.28.28-.279zm2.843 5.23a.325.325 0 0 1-.315.33c-.172.003-.317-.146-.32-.331-.003-.156.152-.305.318-.305.215 0 .318.1.317.306zm4.879 13.9c.09.107.216.175.294.301.208.335.179.73-.094 1.017-.04.04-.075.085-.112.127-.059.024-.118.044-.174.072-.196.095-.395.062-.594.018a2.363 2.363 0 0 0-.104-.07c-.413-.267-.518-.597-.346-1.058.093-.25.3-.426.592-.452.043-.004.086-.002.115-.04.149-.01.283.053.423.085z"/></svg>