<svg xmlns="http://www.w3.org/2000/svg" width="197" height="196" fill="none"><path fill="#fff" d="m189.455 123.699-.745-2.775a7.587 7.587 0 0 0 1.929-.581 5.459 5.459 0 0 0 1.571-1.036 5.16 5.16 0 0 0 1.134-1.487 5.67 5.67 0 0 0 .603-1.934 5.774 5.774 0 0 0-.095-2.17 5.93 5.93 0 0 0-.792-1.859 7.4 7.4 0 0 0-1.349-1.528 10.051 10.051 0 0 0-1.735-1.206 10.588 10.588 0 0 0-1.954-.845 11.98 11.98 0 0 0-2.037-.465 14.212 14.212 0 0 0-3.242-.067 9.351 9.351 0 0 0-3.018.808 6.687 6.687 0 0 0-2.349 1.852c-.637.799-1.039 1.818-1.206 3.056a5.392 5.392 0 0 0 .07 1.901c.145.614.374 1.182.688 1.704a6.45 6.45 0 0 0 1.189 1.444c.471.429.992.792 1.564 1.089l-1.412 2.511a8.353 8.353 0 0 1-2.335-1.944 9.354 9.354 0 0 1-1.49-2.563c-.362-.925-.594-1.9-.694-2.924-.112-1.016-.1-2.025.036-3.028.146-1.085.419-2.111.819-3.077.399-.957.901-1.832 1.506-2.624a11.413 11.413 0 0 1 2.088-2.107 11.636 11.636 0 0 1 2.549-1.482 11.79 11.79 0 0 1 2.904-.776 12.16 12.16 0 0 1 3.17.025c1.079.148 2.095.422 3.046.822a11.81 11.81 0 0 1 2.609 1.528 11.486 11.486 0 0 1 2.079 2.113c.597.8 1.082 1.664 1.455 2.59.373.926.624 1.903.755 2.932.13 1.039.121 2.101-.025 3.186a12.862 12.862 0 0 1-.779 3.004c-.38.97-.877 1.85-1.492 2.642a8.987 8.987 0 0 1-2.172 2.033 8.365 8.365 0 0 1-2.843 1.238zm-19.439 4.213 1.701-4.949 24.576 8.534-.655 1.903-6.16 1.27-19.462-6.758zm4.456 10.892a20.8 20.8 0 0 0-1.231 1.509c-.384.517-.734 1.06-1.051 1.627a9.05 9.05 0 0 0-.759 1.739 4.265 4.265 0 0 0-.175 1.643c.058.529.246 1.026.564 1.49.318.464.805.88 1.459 1.249a5.338 5.338 0 0 0 1.572.603c.52.104 1.017.1 1.491-.012.47-.102.905-.312 1.307-.63.41-.313.769-.745 1.076-1.294.286-.513.451-1.03.495-1.55a4.195 4.195 0 0 0-.163-1.513 5.595 5.595 0 0 0-.657-1.419 9.728 9.728 0 0 0-2.226-2.375 11.203 11.203 0 0 0-1.265-.837l-.215-.122a2.07 2.07 0 0 0-.222-.108zm-3.22 12.981c-.636-.359-1.147-.783-1.533-1.273a4.913 4.913 0 0 1-.829-1.587 5.74 5.74 0 0 1-.268-1.767 9.54 9.54 0 0 1 .193-1.864c.135-.622.325-1.237.571-1.845.24-.599.508-1.164.805-1.695.377-.675.794-1.316 1.251-1.923.466-.602.98-1.164 1.543-1.688a9.341 9.341 0 0 0-1.957-.482 5.491 5.491 0 0 0-1.881.076 4.494 4.494 0 0 0-1.68.793c-.53.4-.996.96-1.398 1.68a4.928 4.928 0 0 0-.547 1.486 5.018 5.018 0 0 0-.059 1.53c.059.507.192.996.399 1.469a5.5 5.5 0 0 0 .819 1.35l-1.827 1.562a6.522 6.522 0 0 1-1.155-2.268 8.175 8.175 0 0 1-.296-2.476 9.807 9.807 0 0 1 .423-2.497c.246-.82.57-1.591.972-2.311.664-1.189 1.475-2.176 2.432-2.963a8.892 8.892 0 0 1 3.136-1.659 8.803 8.803 0 0 1 3.526-.267c1.225.147 2.43.554 3.613 1.221 1.182.667 2.155 1.488 2.919 2.464a8.91 8.91 0 0 1 1.609 3.163 8.804 8.804 0 0 1 .21 3.547c-.16 1.236-.572 2.449-1.236 3.638a15.243 15.243 0 0 1-1.109 1.701c-.418.558-.874 1.07-1.37 1.536a9.39 9.39 0 0 1-1.57 1.228c-.56.348-1.149.59-1.767.727a5.142 5.142 0 0 1-1.909.095c-.663-.078-1.34-.312-2.03-.701zm-23.565 8.179 3.589-3.795 1.541 1.473c-.186-1.033-.127-2.009.177-2.93.304-.906.814-1.737 1.529-2.493.934-.989 1.944-1.705 3.03-2.149a7.942 7.942 0 0 1 3.299-.61c1.121.044 2.225.316 3.313.814 1.088.498 2.102 1.195 3.04 2.091.939.897 1.683 1.878 2.233 2.945.551 1.067.873 2.159.966 3.274a7.954 7.954 0 0 1-.427 3.353c-.386 1.112-1.047 2.163-1.981 3.151a6.134 6.134 0 0 1-1.572 1.212 5.962 5.962 0 0 1-1.815.639 5.924 5.924 0 0 1-1.928.06 6.247 6.247 0 0 1-1.922-.532l1.212 4.363-1.38 1.46-12.904-12.326zm10.09 2.372c.335.32.706.639 1.114.958.401.325.823.621 1.265.888.443.266.899.481 1.369.644.469.178.94.272 1.413.282.473.024.936-.053 1.39-.233.453-.18.881-.483 1.285-.909.403-.427.675-.872.816-1.336.149-.457.199-.922.15-1.396a4.791 4.791 0 0 0-.351-1.404 8.62 8.62 0 0 0-.732-1.34 12.77 12.77 0 0 0-.936-1.236 17.566 17.566 0 0 0-.997-1.037 17.969 17.969 0 0 0-1.092-.958 12.596 12.596 0 0 0-1.276-.877 8.347 8.347 0 0 0-1.369-.666 4.986 4.986 0 0 0-1.425-.293 3.618 3.618 0 0 0-1.379.222c-.446.172-.871.471-1.274.898-.368.389-.616.808-.742 1.257a3.69 3.69 0 0 0-.106 1.416c.048.488.17.975.364 1.459.194.484.427.95.7 1.396a11.4 11.4 0 0 0 1.813 2.265zm-22.136 17.422a17.007 17.007 0 0 1-1.592-3.454 22.697 22.697 0 0 1-.975-3.926 21.24 21.24 0 0 1-.25-4.011c.039-1.334.221-2.574.544-3.721l2.224-.121c.034.586.112 1.216.236 1.891.124.676.289 1.368.495 2.078.202.723.437 1.451.704 2.183.259.738.539 1.45.839 2.137.297.702.607 1.365.93 1.99.319.639.637 1.218.955 1.737.21.343.447.7.71 1.07.269.38.566.736.89 1.068.322.347.663.658 1.023.932.361.274.743.474 1.147.6.394.132.809.179 1.244.14.426-.033.862-.188 1.308-.464a2.65 2.65 0 0 0 .982-1.027c.223-.404.366-.851.429-1.338.069-.479.072-.985.012-1.517a10.943 10.943 0 0 0-.325-1.564 11.25 11.25 0 0 0-.535-1.434 10.844 10.844 0 0 0-.616-1.183l-4.679-7.637 4.449-2.753 9.334 15.234-1.706 1.056-4.208-2.289c.116.74.138 1.466.067 2.177a7.281 7.281 0 0 1-.487 2.012 6.428 6.428 0 0 1-1.05 1.742 7.015 7.015 0 0 1-1.668 1.414c-1.05.65-2.069 1.044-3.058 1.183a6.14 6.14 0 0 1-2.823-.236c-.888-.287-1.718-.774-2.489-1.461-.765-.678-1.452-1.514-2.061-2.508zm-4.619 14.287a2.757 2.757 0 0 1-.181-1.125c.009-.379.087-.736.235-1.069a2.97 2.97 0 0 1 .628-.906 2.87 2.87 0 0 1 .959-.602 2.865 2.865 0 0 1 1.113-.198 2.966 2.966 0 0 1 1.957.888c.26.276.459.597.599.964.14.366.204.734.191 1.104a2.99 2.99 0 0 1-.25 1.075 2.807 2.807 0 0 1-.619.886 2.72 2.72 0 0 1-.953.617 2.717 2.717 0 0 1-1.119.183 2.75 2.75 0 0 1-1.065-.237 2.761 2.761 0 0 1-.887-.637 2.63 2.63 0 0 1-.608-.943zm-7.703-20.821 4.878-1.882 6.373 16.689-4.878 1.881-6.373-16.688zm-18.741 14.71a17.028 17.028 0 0 1-.236-3.798 22.7 22.7 0 0 1 .507-4.015c.29-1.334.695-2.61 1.215-3.829.518-1.229 1.135-2.318 1.85-3.269l2.116.698c-.18.558-.334 1.174-.462 1.849a21.14 21.14 0 0 0-.289 2.116 29.418 29.418 0 0 0-.132 2.291 30.78 30.78 0 0 0 .011 2.297c.023.762.073 1.493.148 2.194.067.712.155 1.367.264 1.967.072.396.164.815.275 1.256.114.452.262.892.444 1.32.174.44.38.854.618 1.241.237.387.521.712.851.977.32.267.69.461 1.109.584.409.124.871.139 1.387.044a2.649 2.649 0 0 0 1.286-.598c.353-.296.647-.66.882-1.092.237-.421.423-.891.558-1.409a10.82 10.82 0 0 0 .262-1.576c.041-.522.047-1.032.019-1.531a10.959 10.959 0 0 0-.147-1.327l-1.605-8.822 5.14-.945 3.201 17.6-1.971.362-3.095-3.667a8.607 8.607 0 0 1-.723 2.054 7.322 7.322 0 0 1-1.18 1.697c-.464.494-1 .908-1.608 1.24a6.946 6.946 0 0 1-2.064.71c-1.213.223-2.305.219-3.277-.012a6.154 6.154 0 0 1-2.546-1.249c-.724-.591-1.321-1.348-1.792-2.269-.468-.911-.807-1.941-1.016-3.089zm-21.645-9.351a12.62 12.62 0 0 1 .939-3.967c.516-1.223 1.21-2.273 2.082-3.147a8.533 8.533 0 0 1 3.122-2.011c1.2-.466 2.544-.641 4.029-.526.82.064 1.642.221 2.468.472a9.65 9.65 0 0 1 2.3 1.048c.708.439 1.337.98 1.885 1.623a6.526 6.526 0 0 1 1.223 2.192l-2.31.675a6.08 6.08 0 0 0-.645-1.448 5.188 5.188 0 0 0-1.008-1.166 4.737 4.737 0 0 0-1.298-.815 4.612 4.612 0 0 0-1.532-.384c-1.024-.079-1.896.065-2.615.434a4.967 4.967 0 0 0-1.802 1.523 7.25 7.25 0 0 0-1.085 2.246 12.37 12.37 0 0 0-.477 2.588l-.08 1.051c.679-.797 1.47-1.367 2.372-1.711.892-.335 1.855-.462 2.89-.382 1.352.105 2.542.441 3.57 1.008a7.962 7.962 0 0 1 2.553 2.187 8.83 8.83 0 0 1 1.462 3.096c.302 1.163.403 2.393.304 3.69-.1 1.298-.388 2.498-.865 3.6-.476 1.102-1.115 2.042-1.917 2.818a7.881 7.881 0 0 1-2.858 1.783c-1.102.401-2.33.549-3.682.444a6.135 6.135 0 0 1-1.928-.461 5.971 5.971 0 0 1-1.638-1.013 5.93 5.93 0 0 1-1.263-1.465 6.322 6.322 0 0 1-.802-1.833l-2.603 3.697-1.998-.155 1.207-15.691zm4.7 7.216a14.99 14.99 0 0 0-.035 1.473c.001.518.039 1.034.113 1.547a7.41 7.41 0 0 0 .366 1.474c.159.478.384.905.674 1.279.28.385.632.697 1.057.937.424.24.929.383 1.513.428.584.046 1.099-.023 1.546-.206a3.328 3.328 0 0 0 1.172-.763c.334-.327.621-.713.862-1.161.23-.448.421-.92.572-1.416.152-.495.273-.999.364-1.51.08-.501.137-.978.172-1.431.035-.453.051-.939.05-1.457a12.897 12.897 0 0 0-.128-1.548 8.577 8.577 0 0 0-.35-1.487 5.034 5.034 0 0 0-.673-1.295 3.637 3.637 0 0 0-1.041-.936c-.414-.239-.914-.382-1.498-.427-.532-.041-1.012.03-1.438.215a3.671 3.671 0 0 0-1.16.811 5.311 5.311 0 0 0-.897 1.204 9.25 9.25 0 0 0-.635 1.427 11.502 11.502 0 0 0-.605 2.842zM54.15 172.266c.402-.871.868-1.588 1.398-2.149a5.707 5.707 0 0 1 1.72-1.299 5.821 5.821 0 0 1 1.962-.572 8.593 8.593 0 0 1 2.139.04c.724.098 1.465.272 2.222.522.747.245 1.49.539 2.226.882.97.451 1.83.943 2.582 1.475a11.49 11.49 0 0 1 2.01 1.755 12.228 12.228 0 0 1 1.52 2.193 16.8 16.8 0 0 1 1.151 2.737l-4.194 1.582a7.541 7.541 0 0 0-.247-2.3 9.366 9.366 0 0 0-.85-2.102 8.41 8.41 0 0 0-1.278-1.722c-.484-.499-.987-.869-1.509-1.112a12.438 12.438 0 0 0-1.792-.681 5.391 5.391 0 0 0-1.62-.207 2.647 2.647 0 0 0-1.313.379c-.393.238-.708.615-.945 1.13-.182.394-.249.772-.201 1.136.048.363.17.711.369 1.042.185.336.426.66.725.969.3.31.618.601.957.872.326.277.653.538.982.782.325.253.608.487.849.702.476.415.972.851 1.487 1.307.51.465 1 .949 1.47 1.452.47.504.898 1.027 1.282 1.57a7.17 7.17 0 0 1 .858 1.713c.197.604.287 1.232.27 1.884-.022.662-.197 1.348-.525 2.061-.393.852-.843 1.559-1.35 2.119a6.04 6.04 0 0 1-1.692 1.313 5.802 5.802 0 0 1-1.92.591 7.774 7.774 0 0 1-2.09.001 11.318 11.318 0 0 1-2.187-.489 18.193 18.193 0 0 1-2.232-.868c-1.007-.469-1.878-.988-2.612-1.557a11.328 11.328 0 0 1-1.925-1.869 10.537 10.537 0 0 1-1.34-2.143 14.751 14.751 0 0 1-.911-2.37l4.194-1.582a7.19 7.19 0 0 0 .095 2.264c.14.725.365 1.393.673 2.003a6.288 6.288 0 0 0 1.11 1.609c.432.463.895.809 1.39 1.039.643.3 1.257.529 1.84.686.58.168 1.113.24 1.6.216a2.439 2.439 0 0 0 1.27-.399c.37-.238.672-.609.905-1.115.186-.403.264-.782.235-1.137a2.559 2.559 0 0 0-.299-1.01 4.476 4.476 0 0 0-.682-.915 13.69 13.69 0 0 0-.886-.805c-.32-.263-.636-.512-.947-.748-.324-.23-.61-.455-.86-.674-.487-.419-.997-.861-1.53-1.326a19.933 19.933 0 0 1-1.527-1.479 14.41 14.41 0 0 1-1.33-1.609 6.885 6.885 0 0 1-.915-1.774 5.367 5.367 0 0 1-.3-1.932c.013-.666.186-1.359.518-2.081zm-6.93-3.334a20.761 20.761 0 0 0-1.267-1.477 15.137 15.137 0 0 0-1.416-1.319 8.934 8.934 0 0 0-1.574-1.049c-.539-.268-1.065-.42-1.58-.455a3.171 3.171 0 0 0-1.558.303c-.51.236-1 .646-1.474 1.231-.383.472-.67.957-.86 1.453-.191.497-.272.99-.245 1.479.02.482.152.949.395 1.401.237.461.598.89 1.084 1.287a3.77 3.77 0 0 0 1.435.756c.495.125.998.158 1.51.098a5.45 5.45 0 0 0 1.504-.408 9.606 9.606 0 0 0 2.71-1.797 11.343 11.343 0 0 0 1.193-1.301c.052-.064.1-.131.144-.202zm-12.173-5.411c.461-.568.965-1.002 1.511-1.3a4.855 4.855 0 0 1 1.697-.549 5.63 5.63 0 0 1 1.779.038 9.49 9.49 0 0 1 1.794.509c.586.241 1.157.535 1.71.882.546.34 1.054.702 1.524 1.087a16.827 16.827 0 0 1 1.672 1.568c.51.565.973 1.17 1.39 1.817.34-.6.61-1.218.808-1.855a5.573 5.573 0 0 0 .247-1.875 4.54 4.54 0 0 0-.49-1.8c-.3-.593-.77-1.15-1.407-1.672a4.931 4.931 0 0 0-2.852-1.116 5.025 5.025 0 0 0-1.509.143 5.457 5.457 0 0 0-1.464.58l-1.219-2.077a6.467 6.467 0 0 1 2.422-.755 8.085 8.085 0 0 1 2.478.131 9.757 9.757 0 0 1 2.375.846c.762.384 1.462.837 2.1 1.359 1.051.861 1.88 1.833 2.487 2.916.6 1.091.963 2.22 1.09 3.389a8.926 8.926 0 0 1-.342 3.536c-.354 1.189-.96 2.312-1.816 3.369-.857 1.057-1.828 1.879-2.915 2.468a8.82 8.82 0 0 1-3.377 1.052 8.676 8.676 0 0 1-3.514-.399c-1.184-.371-2.302-.986-3.353-1.847a15.26 15.26 0 0 1-1.478-1.39 11.79 11.79 0 0 1-1.271-1.62 9.397 9.397 0 0 1-.936-1.765 5.7 5.7 0 0 1-.409-1.873 5.197 5.197 0 0 1 .233-1.907c.19-.644.536-1.273 1.035-1.89zm-15.422-12.546 5.628-.697a20.94 20.94 0 0 0-.797 1.238c-.283.473-.51.961-.68 1.462a4.225 4.225 0 0 0-.248 1.515c.005.508.17.969.493 1.383.298.382.655.639 1.071.77.41.123.849.158 1.316.104a5.95 5.95 0 0 0 1.435-.344c.484-.184.956-.399 1.417-.645.447-.247.866-.505 1.257-.774.382-.263.707-.499.974-.71l7.02-5.537 3.226 4.131-14.004 11.046-1.237-1.585 1.958-4.241c-.703.186-1.387.306-2.052.358a6.448 6.448 0 0 1-1.93-.113 5.413 5.413 0 0 1-1.76-.699c-.558-.347-1.075-.825-1.551-1.434a9.477 9.477 0 0 1-.743-1.127 7.164 7.164 0 0 1-.628-1.356 5.73 5.73 0 0 1-.324-1.419 2.96 2.96 0 0 1 .16-1.326zm8.611-18.881 2.063 4.228-13.132 13.719-2.294-4.7 10.64-10.559-14.76 2.117-1.588-3.255 19.071-1.55zm-25.68-6.452a2.71 2.71 0 0 1 1.13-.093 2.75 2.75 0 0 1 1.042.32c.319.175.602.408.849.701.237.296.41.632.521 1.008.11.377.147.754.108 1.131A2.974 2.974 0 0 1 5.17 130.6a2.88 2.88 0 0 1-1.003.524 2.765 2.765 0 0 1-1.111.104 2.941 2.941 0 0 1-1.047-.336 2.789 2.789 0 0 1-.83-.69 2.734 2.734 0 0 1-.536-1.004 2.743 2.743 0 0 1-.093-1.135 2.79 2.79 0 0 1 .319-1.048c.174-.321.407-.6.702-.838.281-.245.61-.423.984-.535zm21.26-6.073 1.482 5.036-17.057 5.067-1.481-5.036 17.057-5.067zM7.61 101.896l1.148 2.143c-1.08.49-1.874 1.191-2.379 2.102-.505.912-.69 1.957-.553 3.137.074.636.241 1.193.504 1.672.25.47.571.874.962 1.213.39.329.83.6 1.32.813a7.85 7.85 0 0 0 1.543.459 9.29 9.29 0 0 0 1.663.165c.56.007 1.1-.019 1.62-.08a16.165 16.165 0 0 0 1.689-.291 10.71 10.71 0 0 0 1.618-.501 7.76 7.76 0 0 0 1.4-.771 4.57 4.57 0 0 0 1.073-1.061c.292-.419.506-.896.64-1.432.134-.545.162-1.157.084-1.834a4.93 4.93 0 0 0-.425-1.525 4.998 4.998 0 0 0-.845-1.274 5.35 5.35 0 0 0-1.183-.969 5.076 5.076 0 0 0-1.45-.595l.566-2.358a6.876 6.876 0 0 1 2.254 1.109 7.749 7.749 0 0 1 1.673 1.723c.46.663.828 1.39 1.105 2.179.277.789.464 1.598.56 2.429.155 1.344.075 2.617-.241 3.818a9.138 9.138 0 0 1-1.57 3.208 9.06 9.06 0 0 1-2.697 2.296c-1.079.604-2.292.985-3.639 1.142-1.357.158-2.63.073-3.816-.256a8.842 8.842 0 0 1-3.15-1.613 8.754 8.754 0 0 1-2.241-2.748c-.582-1.097-.952-2.327-1.11-3.691-.1-.862-.1-1.714 0-2.558a8.226 8.226 0 0 1 .61-2.379 7.427 7.427 0 0 1 1.266-2.066 6.969 6.969 0 0 1 2.002-1.606zm5.53-8.325c.218-.618.407-1.24.564-1.867.158-.625.275-1.261.352-1.907a8.98 8.98 0 0 0 .04-1.899c-.062-.6-.216-1.128-.462-1.584a3.2 3.2 0 0 0-1.088-1.161c-.47-.307-1.078-.505-1.822-.595a5.312 5.312 0 0 0-1.683.047 3.49 3.49 0 0 0-1.373.583 3.191 3.191 0 0 0-.968 1.085c-.26.447-.428.983-.503 1.608a3.817 3.817 0 0 0 .132 1.623c.16.487.401.933.726 1.336A5.53 5.53 0 0 0 8.2 91.899a9.685 9.685 0 0 0 2.96 1.34 11.29 11.29 0 0 0 1.487.288l.245.03c.082.01.164.014.247.014zm-1.96-13.232c.725.087 1.359.283 1.902.588.533.303.99.686 1.369 1.148.38.451.687.962.92 1.53.231.57.408 1.168.53 1.796.111.627.169 1.269.174 1.925.005.645-.028 1.27-.1 1.875a16.945 16.945 0 0 1-.425 2.258 14.037 14.037 0 0 1-.785 2.152 9.313 9.313 0 0 0 1.992-.306 5.506 5.506 0 0 0 1.71-.792 4.512 4.512 0 0 0 1.25-1.378c.338-.573.556-1.27.654-2.09a4.938 4.938 0 0 0-.06-1.582 5.017 5.017 0 0 0-1.454-2.641 5.43 5.43 0 0 0-1.27-.933l1.095-2.146a6.495 6.495 0 0 1 1.93 1.652 8.21 8.21 0 0 1 1.214 2.175c.29.784.476 1.607.559 2.47.084.853.077 1.69-.02 2.51-.162 1.353-.536 2.577-1.122 3.671a8.936 8.936 0 0 1-2.267 2.737 8.825 8.825 0 0 1-3.157 1.601c-1.188.335-2.456.421-3.803.259-1.346-.162-2.558-.548-3.634-1.156a8.854 8.854 0 0 1-2.69-2.306 8.772 8.772 0 0 1-1.542-3.197c-.322-1.204-.402-2.483-.24-3.836.078-.656.204-1.322.378-1.998.173-.676.401-1.325.682-1.946a9.412 9.412 0 0 1 .984-1.738 5.662 5.662 0 0 1 1.356-1.35 5.135 5.135 0 0 1 1.729-.82c.642-.183 1.356-.227 2.142-.132zm12.218-16.066c.734.268 1.347.612 1.84 1.033.493.421.886.894 1.178 1.418.282.52.477 1.085.585 1.696a8.71 8.71 0 0 1 .093 1.879 11.356 11.356 0 0 1-.275 1.943c-.15.66-.337 1.3-.561 1.92-.301.836-.62 1.554-.958 2.156a9.406 9.406 0 0 1-1.169 1.65c-.451.495-.97.965-1.557 1.41-.584.436-1.274.91-2.07 1.421l-1.299-3.719a5.576 5.576 0 0 0 1.72-.543 9.999 9.999 0 0 0 1.518-.98c.458-.36.843-.73 1.155-1.11.312-.382.517-.708.615-.98.08-.223.167-.477.259-.762.082-.289.156-.586.223-.891.056-.309.092-.62.107-.933a2.956 2.956 0 0 0-.08-.87 1.83 1.83 0 0 0-.376-.73 1.712 1.712 0 0 0-.753-.504 1.508 1.508 0 0 0-.95-.05c-.31.074-.606.213-.887.418-.282.205-.549.46-.8.763-.252.304-.49.618-.717.942-.223.314-.427.624-.614.93-.196.302-.372.562-.527.78-.287.4-.582.826-.886 1.275-.314.446-.64.882-.98 1.308-.349.422-.72.814-1.113 1.176-.389.352-.804.64-1.246.864-.447.21-.925.338-1.433.384-.515.032-1.066-.059-1.656-.273-1.082-.394-1.908-.937-2.478-1.628a5.398 5.398 0 0 1-1.134-2.357 7.685 7.685 0 0 1-.07-2.76c.142-.97.381-1.922.717-2.854.231-.64.542-1.29.933-1.95a11.61 11.61 0 0 1 1.325-1.857 10.886 10.886 0 0 1 1.605-1.54 6.346 6.346 0 0 1 1.786-.998l1.313 3.724a5.251 5.251 0 0 0-1.797.301 5.098 5.098 0 0 0-1.419.752c-.414.3-.76.64-1.04 1.022a4.305 4.305 0 0 0-.609 1.096c-.126.35-.253.748-.382 1.195-.129.448-.195.89-.2 1.328-.001.428.09.829.271 1.203.176.36.506.629.989.805.348.126.675.158.982.094.301-.077.59-.213.869-.409a4.76 4.76 0 0 0 .77-.724c.238-.298.468-.604.691-.918.213-.318.413-.63.6-.935.186-.306.365-.575.537-.81.287-.4.587-.824.9-1.27.308-.459.637-.9.986-1.321.339-.426.705-.82 1.098-1.182a4.868 4.868 0 0 1 1.257-.893 4.02 4.02 0 0 1 1.453-.394c.508-.045 1.062.041 1.66.26zm14.848-26.41c1 .826 1.814 1.75 2.44 2.774a8.84 8.84 0 0 1 1.212 3.204 8.046 8.046 0 0 1-.196 3.365c-.305 1.139-.887 2.234-1.748 3.288-.436.535-.933.98-1.49 1.336a6.511 6.511 0 0 1-1.752.78c-.62.156-1.26.223-1.919.2a6.487 6.487 0 0 1-1.945-.402l1.524 4.263-1.27 1.556-18.825-15.526 3.305-4.047 6.707 5.532c-.268-1.023-.283-1.997-.045-2.923.244-.934.695-1.804 1.354-2.61.86-1.054 1.816-1.842 2.867-2.364a7.936 7.936 0 0 1 3.246-.85c1.113-.044 2.23.143 3.351.56 1.122.417 2.183 1.039 3.184 1.864zm-3.354 4.107c-.35-.288-.735-.573-1.157-.854-.423-.295-.865-.56-1.326-.793a7.7 7.7 0 0 0-1.423-.553 4.406 4.406 0 0 0-1.42-.19c-.474.01-.927.118-1.36.322-.44.198-.846.524-1.218.98a3.004 3.004 0 0 0-.647 1.33 3.754 3.754 0 0 0-.015 1.41c.09.475.25.947.478 1.416.228.469.495.916.8 1.34.304.425.627.819.97 1.181.341.363.671.675.989.937.357.295.748.59 1.17.886.43.287.88.551 1.349.79.46.234.932.422 1.413.565.48.129.957.188 1.43.178a3.59 3.59 0 0 0 1.357-.343c.44-.213.848-.55 1.226-1.013.365-.447.605-.904.72-1.37.114-.481.133-.953.059-1.415a4.709 4.709 0 0 0-.474-1.373 8.18 8.18 0 0 0-.83-1.305c-.317-.408-.657-.79-1.02-1.142a14.598 14.598 0 0 0-1.071-.984zm5.818-4.693a16.799 16.799 0 0 1-1.324-2.173 22.039 22.039 0 0 1-1.055-2.485 24.739 24.739 0 0 1-.75-2.67 22.126 22.126 0 0 1-.433-2.73l3.079-2.25c.245.778.533 1.57.862 2.377a42.22 42.22 0 0 0 1.067 2.342c.381.756.775 1.484 1.18 2.184.413.693.822 1.32 1.227 1.88.236.325.502.667.8 1.024.298.344.621.676.968.997.34.313.701.592 1.082.837.39.239.789.413 1.198.523.404.1.816.118 1.239.052.424-.08.848-.276 1.272-.586.416-.303.719-.666.91-1.086a4.01 4.01 0 0 0 .338-1.377 5.858 5.858 0 0 0-.126-1.517 9.845 9.845 0 0 0-.447-1.512 10.552 10.552 0 0 0-.63-1.398 9.342 9.342 0 0 0-.693-1.14l-5.25-7.254 4.214-3.08 10.471 14.468-1.62 1.185-4.37-1.957c.163.735.237 1.46.22 2.175a7.16 7.16 0 0 1-.328 2.021 6.37 6.37 0 0 1-.927 1.827 6.85 6.85 0 0 1-1.542 1.53c-.997.729-1.983 1.2-2.958 1.416a6.231 6.231 0 0 1-2.824-.004c-.907-.218-1.769-.636-2.584-1.253-.821-.626-1.576-1.414-2.265-2.366zm33.739-16.958c.296.726.454 1.414.475 2.064.02.65-.064 1.26-.254 1.829a5.545 5.545 0 0 1-.857 1.575c-.381.48-.822.925-1.322 1.332-.491.403-1.03.77-1.617 1.1-.587.332-1.184.622-1.793.873-.817.337-1.561.582-2.232.735a9.31 9.31 0 0 1-2.001.239 11.49 11.49 0 0 1-2.086-.213 35.916 35.916 0 0 1-2.437-.586l1.868-3.465a5.59 5.59 0 0 0 1.556.916 9.971 9.971 0 0 0 1.741.471 7.368 7.368 0 0 0 1.596.113c.49-.023.868-.09 1.134-.2.219-.09.464-.196.736-.319.268-.133.537-.277.806-.432.266-.166.52-.348.76-.548.24-.2.436-.414.587-.643a1.73 1.73 0 0 0 .152-1.67 1.521 1.521 0 0 0-.601-.74 2.47 2.47 0 0 0-.905-.38c-.34-.072-.707-.1-1.1-.083-.393.017-.785.05-1.175.099-.382.045-.748.101-1.098.167-.355.057-.664.101-.93.132-.487.056-.999.122-1.535.197-.539.066-1.08.116-1.621.149-.546.024-1.084.011-1.615-.038a5.66 5.66 0 0 1-1.474-.347 4.241 4.241 0 0 1-1.246-.81c-.37-.36-.673-.833-.91-1.416-.437-1.07-.592-2.05-.466-2.938a5.403 5.403 0 0 1 .976-2.428 7.627 7.627 0 0 1 1.987-1.907 14.5 14.5 0 0 1 2.585-1.382 11.348 11.348 0 0 1 2.064-.616 11.503 11.503 0 0 1 2.259-.26c.757-.022 1.495.03 2.213.159a6.337 6.337 0 0 1 1.935.66l-1.862 3.479a5.28 5.28 0 0 0-1.43-1.136 5.055 5.055 0 0 0-1.507-.551 4.639 4.639 0 0 0-1.452-.088 4.26 4.26 0 0 0-1.217.283c-.342.141-.721.314-1.137.519a4.94 4.94 0 0 0-1.113.743 2.677 2.677 0 0 0-.705 1.01c-.147.373-.123.799.071 1.276.14.344.337.61.59.795.26.172.555.296.886.372a4.66 4.66 0 0 0 1.05.086c.38-.022.76-.056 1.142-.101.377-.055.741-.116 1.092-.182.35-.067.67-.114.957-.143a207.63 207.63 0 0 0 1.541-.183 16.13 16.13 0 0 1 1.636-.155 10.456 10.456 0 0 1 1.61.024 4.848 4.848 0 0 1 1.502.335c.465.188.887.46 1.266.818.375.348.683.818.925 1.41zm4.316-17.684c.087.383.093.762.02 1.139a2.777 2.777 0 0 1-.385 1.025 2.974 2.974 0 0 1-.75.806 2.88 2.88 0 0 1-1.035.458 2.875 2.875 0 0 1-1.13.035 2.969 2.969 0 0 1-1.81-1.16 2.908 2.908 0 0 1-.456-1.04 2.801 2.801 0 0 1-.032-1.12c.073-.377.207-.72.4-1.029.194-.309.44-.571.74-.788.306-.228.65-.386 1.03-.473a2.73 2.73 0 0 1 1.134-.02 2.74 2.74 0 0 1 1.807 1.146c.225.298.38.638.467 1.02zm4.659 21.715-5.096 1.16-3.93-17.433 5.095-1.16 3.93 17.433zm20.645-11.946a17.103 17.103 0 0 1-.301 3.794 22.79 22.79 0 0 1-1.069 3.902 21.15 21.15 0 0 1-1.743 3.617c-.686 1.143-1.45 2.134-2.292 2.973l-1.997-.993c.258-.526.497-1.114.72-1.764.22-.649.416-1.334.583-2.053.178-.73.33-1.48.454-2.25.135-.77.24-1.528.313-2.275.084-.758.139-1.489.163-2.192.034-.715.04-1.376.016-1.985a18.87 18.87 0 0 0-.095-1.283 8.91 8.91 0 0 0-.253-1.37c-.11-.46-.256-.9-.437-1.316a3.765 3.765 0 0 0-.705-1.089 3.05 3.05 0 0 0-1.015-.736c-.388-.181-.843-.262-1.367-.241a2.64 2.64 0 0 0-1.357.409c-.391.243-.734.56-1.027.954a5.912 5.912 0 0 0-.752 1.316 10.91 10.91 0 0 0-.481 1.523c-.114.51-.193 1.015-.235 1.512-.043.498-.056.943-.041 1.335l.344 8.962-5.221.203-.687-17.878 2.002-.078 2.547 4.071a8.507 8.507 0 0 1 1.006-1.93 7.26 7.26 0 0 1 1.407-1.512 6.366 6.366 0 0 1 1.766-.998 6.95 6.95 0 0 1 2.144-.409c1.232-.048 2.313.112 3.242.479.929.367 1.711.9 2.344 1.599.633.688 1.118 1.522 1.454 2.501.335.969.525 2.036.57 3.202zm8.265 3.128c.593.275 1.192.52 1.798.736a15 15 0 0 0 1.858.527 8.929 8.929 0 0 0 1.877.215c.601-.008 1.138-.114 1.613-.318a3.189 3.189 0 0 0 1.25-.982c.347-.442.599-1.032.756-1.77a5.401 5.401 0 0 0 .108-1.687 3.53 3.53 0 0 0-.452-1.428 3.19 3.19 0 0 0-.985-1.068c-.419-.302-.935-.519-1.548-.65a3.76 3.76 0 0 0-1.62-.018 4.144 4.144 0 0 0-1.39.604c-.417.28-.802.63-1.154 1.05a9.724 9.724 0 0 0-1.6 2.84c-.182.51-.323.996-.422 1.46l-.052.243a2.23 2.23 0 0 0-.037.246zm13.291-.746c-.153.717-.406 1.333-.757 1.849a4.9 4.9 0 0 1-1.264 1.264 5.65 5.65 0 0 1-1.6.78 9.414 9.414 0 0 1-1.828.366 11.26 11.26 0 0 1-1.923-.003 14.458 14.458 0 0 1-1.849-.272 16.714 16.714 0 0 1-2.198-.633 13.726 13.726 0 0 1-2.06-.983c-.032.69.008 1.365.12 2.023a5.57 5.57 0 0 0 .628 1.783c.307.53.724.99 1.25 1.378.537.39 1.207.673 2.011.846a4.866 4.866 0 0 0 1.574.086 4.956 4.956 0 0 0 2.749-1.213 5.456 5.456 0 0 0 1.042-1.186l2.025 1.293a6.513 6.513 0 0 1-1.814 1.779 8.092 8.092 0 0 1-2.267 1.016 9.688 9.688 0 0 1-2.498.333 11.358 11.358 0 0 1-2.485-.251c-1.326-.286-2.504-.772-3.534-1.46a8.92 8.92 0 0 1-2.504-2.52 8.905 8.905 0 0 1-1.297-3.305c-.222-1.22-.192-2.497.093-3.83.285-1.333.778-2.51 1.479-3.531a8.859 8.859 0 0 1 2.531-2.48 8.69 8.69 0 0 1 3.31-1.25c1.222-.212 2.496-.175 3.822.11.643.14 1.292.327 1.945.563a11.81 11.81 0 0 1 1.866.861c.592.329 1.136.71 1.631 1.144.496.435.9.929 1.213 1.482.325.545.543 1.147.655 1.805.122.66.1 1.378-.066 2.156zm15.396 13.98c-.336.708-.737 1.289-1.202 1.741a5.162 5.162 0 0 1-1.518 1.04 5.478 5.478 0 0 1-1.736.421c-.611.04-1.234.01-1.87-.09a11.214 11.214 0 0 1-1.898-.462 16.183 16.183 0 0 1-1.847-.748 14.327 14.327 0 0 1-2.042-1.167 9.327 9.327 0 0 1-1.521-1.33c-.446-.5-.861-1.064-1.245-1.694a36.543 36.543 0 0 1-1.207-2.209l3.809-.938a5.66 5.66 0 0 0 .371 1.774c.236.582.51 1.12.823 1.613.313.493.642.914.989 1.263.346.349.65.586.909.71.214.102.457.213.73.333.278.11.565.213.861.31.3.086.605.152.914.197.309.045.598.046.868.004a1.722 1.722 0 0 0 1.333-1.009c.15-.317.197-.632.141-.945a2.497 2.497 0 0 0-.328-.93 4.47 4.47 0 0 0-.678-.873c-.277-.281-.564-.55-.863-.808-.29-.254-.577-.488-.861-.705-.28-.225-.521-.426-.722-.603a58.552 58.552 0 0 0-1.177-1.01 26.946 26.946 0 0 1-1.199-1.107 11.8 11.8 0 0 1-1.057-1.227 5.67 5.67 0 0 1-.735-1.33 4.29 4.29 0 0 1-.242-1.471c.018-.518.162-1.061.432-1.63.495-1.044 1.112-1.818 1.852-2.321a5.347 5.347 0 0 1 2.444-.905c.881-.105 1.794-.039 2.741.197a14.48 14.48 0 0 1 2.756.994 11.41 11.41 0 0 1 1.841 1.122c.619.446 1.189.948 1.71 1.506.525.55.982 1.134 1.37 1.755.389.621.66 1.249.814 1.883l-3.815.952a5.33 5.33 0 0 0-.124-1.827 5.102 5.102 0 0 0-.607-1.492 4.68 4.68 0 0 0-.91-1.14 4.292 4.292 0 0 0-1.027-.714 18.21 18.21 0 0 0-1.147-.498 4.925 4.925 0 0 0-1.295-.33 2.657 2.657 0 0 0-1.218.155c-.374.141-.672.445-.893.911-.159.335-.222.66-.188.974.047.308.154.611.32.908.171.288.385.568.643.84.272.267.552.528.842.781.294.244.583.474.868.69.284.217.534.422.749.617.369.325.759.667 1.171 1.024.424.352.829.723 1.213 1.113.389.38.743.785 1.064 1.213.334.424.588.872.763 1.344.174.472.257.97.248 1.492-.004.513-.143 1.058-.417 1.636zm14.51 11.159c-.482.617-.999 1.095-1.551 1.434a5.152 5.152 0 0 1-1.708.682 5.48 5.48 0 0 1-1.786.029 8.576 8.576 0 0 1-1.805-.499 11.22 11.22 0 0 1-1.751-.869 16.24 16.24 0 0 1-1.64-1.136 14.368 14.368 0 0 1-1.738-1.588 9.395 9.395 0 0 1-1.195-1.63 11.547 11.547 0 0 1-.846-1.928c-.23-.693-.462-1.5-.697-2.42l3.921-.078a5.667 5.667 0 0 0-.024 1.812c.103.62.254 1.205.452 1.754.198.55.428 1.034.69 1.45.262.417.506.715.733.893.186.147.399.309.64.485.247.17.504.333.772.492.274.15.557.281.849.393.291.112.573.177.846.195a1.715 1.715 0 0 0 1.52-.692 1.52 1.52 0 0 0 .343-.89 2.487 2.487 0 0 0-.117-.98 4.448 4.448 0 0 0-.472-1.001c-.208-.335-.43-.661-.666-.978a15.932 15.932 0 0 0-.687-.877c-.224-.282-.415-.53-.573-.747a61.777 61.777 0 0 0-.928-1.244 26.807 26.807 0 0 1-.93-1.344 11.94 11.94 0 0 1-.764-1.43 5.734 5.734 0 0 1-.428-1.46 4.283 4.283 0 0 1 .085-1.488c.13-.501.389-1 .776-1.495.71-.91 1.481-1.53 2.312-1.858a5.337 5.337 0 0 1 2.582-.346c.882.091 1.759.356 2.632.795.872.438 1.696.964 2.472 1.576.534.42 1.051.92 1.552 1.5.508.57.955 1.186 1.341 1.845.393.651.712 1.322.955 2.014a6.4 6.4 0 0 1 .385 2.016l-3.93.09a5.328 5.328 0 0 0 .277-1.81 5.093 5.093 0 0 0-.268-1.589 4.675 4.675 0 0 0-.64-1.312 4.289 4.289 0 0 0-.846-.924c-.291-.23-.628-.475-1.011-.738a4.92 4.92 0 0 0-1.193-.605 2.653 2.653 0 0 0-1.221-.117c-.396.055-.752.286-1.07.692-.228.293-.36.595-.396.909a2.7 2.7 0 0 0 .115.956c.104.319.253.64.445.962.207.32.424.636.651.947.234.302.467.59.697.864.23.274.429.53.597.766.289.4.596.818.919 1.257.338.437.652.888.942 1.353.296.457.554.93.774 1.418.234.486.384.98.452 1.478.067.5.039 1.003-.083 1.51-.115.5-.37 1.002-.763 1.506zm6.904 3.694c.286.59.597 1.16.932 1.71.334.552.704 1.081 1.109 1.588a8.96 8.96 0 0 0 1.322 1.358c.47.375.954.634 1.45.777.51.144 1.039.154 1.586.031.547-.123 1.113-.421 1.698-.893a5.36 5.36 0 0 0 1.144-1.24c.29-.446.472-.91.547-1.395.081-.475.05-.96-.094-1.453-.136-.5-.4-.996-.792-1.487a3.79 3.79 0 0 0-1.246-1.04 4.147 4.147 0 0 0-1.457-.414 5.496 5.496 0 0 0-1.555.082 9.674 9.674 0 0 0-3.024 1.188c-.461.28-.876.568-1.245.865l-.192.155a1.916 1.916 0 0 0-.183.168zm10.777 7.852c-.569.46-1.152.777-1.749.954-.589.17-1.18.23-1.774.18a5.643 5.643 0 0 1-1.731-.412 9.439 9.439 0 0 1-1.648-.875 11.347 11.347 0 0 1-1.489-1.222 14.67 14.67 0 0 1-1.264-1.384 16.863 16.863 0 0 1-1.307-1.885 14.026 14.026 0 0 1-.981-2.07 9.436 9.436 0 0 0-1.177 1.645 5.567 5.567 0 0 0-.632 1.781 4.526 4.526 0 0 0 .104 1.863c.171.643.514 1.287 1.028 1.931.341.427.73.782 1.167 1.065a4.96 4.96 0 0 0 2.894.804 5.395 5.395 0 0 0 1.552-.26l.76 2.288a6.456 6.456 0 0 1-2.525.23 8.083 8.083 0 0 1-2.396-.65 9.752 9.752 0 0 1-2.147-1.327 11.42 11.42 0 0 1-1.769-1.77c-.849-1.064-1.457-2.189-1.825-3.375-.36-1.193-.48-2.374-.36-3.544a8.945 8.945 0 0 1 1.071-3.386c.594-1.088 1.42-2.058 2.477-2.911 1.058-.854 2.18-1.454 3.365-1.8a8.799 8.799 0 0 1 3.521-.318 8.672 8.672 0 0 1 3.352 1.129c1.081.611 2.046 1.448 2.895 2.511a15.21 15.21 0 0 1 1.156 1.67c.359.598.66 1.215.905 1.852.253.63.436 1.27.547 1.922.112.651.115 1.291.011 1.919a5.192 5.192 0 0 1-.626 1.815c-.32.589-.788 1.133-1.405 1.63zm2.938 20.101c-.704.34-1.378.54-2.022.6a5.138 5.138 0 0 1-1.832-.145 5.492 5.492 0 0 1-1.615-.766c-.5-.354-.968-.77-1.402-1.248a11.28 11.28 0 0 1-1.189-1.556 16.286 16.286 0 0 1-.974-1.747 14.49 14.49 0 0 1-.863-2.195 9.448 9.448 0 0 1-.356-1.994 11.64 11.64 0 0 1 .087-2.105c.098-.724.244-1.55.437-2.48l3.552 1.668a5.662 5.662 0 0 0-.817 1.615c-.179.603-.3 1.194-.364 1.775a7.429 7.429 0 0 0-.017 1.608c.052.49.141.865.266 1.126.102.214.222.454.361.719.148.26.307.522.478.783.18.257.376.5.588.73.213.23.438.413.675.55.25.143.511.223.782.24.284.024.58-.039.885-.187.315-.152.548-.368.699-.647.165-.275.273-.585.324-.93.051-.346.057-.716.017-1.109a14.1 14.1 0 0 0-.169-1.173 16.47 16.47 0 0 0-.231-1.092c-.078-.352-.14-.66-.186-.924a61.953 61.953 0 0 0-.288-1.528 27.677 27.677 0 0 1-.244-1.618 12.114 12.114 0 0 1-.059-1.623 5.777 5.777 0 0 1 .257-1.499c.164-.469.407-.901.73-1.298.337-.392.787-.725 1.352-.998 1.037-.502 2.001-.716 2.891-.642a5.344 5.344 0 0 1 2.47.834c.751.473 1.421 1.1 2.012 1.88.59.78 1.099 1.617 1.527 2.51.294.615.539 1.293.735 2.035a11.6 11.6 0 0 1 .393 2.25c.067.759.058 1.502-.026 2.23a6.438 6.438 0 0 1-.54 1.981l-3.567-1.661a5.299 5.299 0 0 0 1.043-1.502 5.095 5.095 0 0 0 .457-1.545c.077-.507.077-.994.002-1.462a4.37 4.37 0 0 0-.354-1.203 19.052 19.052 0 0 0-.584-1.111 4.95 4.95 0 0 0-.804-1.072 2.664 2.664 0 0 0-1.045-.647c-.379-.125-.801-.076-1.264.148a1.795 1.795 0 0 0-.754.64 2.7 2.7 0 0 0-.317.91 4.758 4.758 0 0 0-.022 1.059c.044.38.101.759.169 1.139.077.375.159.736.245 1.084.087.348.153.665.2.952.084.487.175.998.273 1.536.111.542.195 1.086.251 1.632.066.54.09 1.08.073 1.615a4.925 4.925 0 0 1-.244 1.527 4.057 4.057 0 0 1-.737 1.32c-.323.396-.771.734-1.345 1.011zm8.861 17.234a3.875 3.875 0 0 1-1.571-.038 3.928 3.928 0 0 1-2.411-1.715 3.816 3.816 0 0 1-.567-1.457 3.953 3.953 0 0 1 .038-1.579c.121-.504.323-.964.605-1.38a4.147 4.147 0 0 1 1.087-1.04c.44-.287.928-.478 1.465-.572a3.764 3.764 0 0 1 1.556.04 3.906 3.906 0 0 1 2.423 1.698c.286.442.475.933.569 1.472a3.82 3.82 0 0 1-.04 1.564c-.12.514-.326.974-.62 1.383a3.797 3.797 0 0 1-1.084 1.055 3.77 3.77 0 0 1-1.45.57z"/></svg>