<svg xmlns="http://www.w3.org/2000/svg" width="128" height="164" fill="none"><path fill="#082F49" d="M72.882 1.837C81.128 1.3 90.033 4.98 96.29 9.827c9.575 7.428 14.274 18.305 14.802 30.203l1.417 31.821c.695 15.647 3.784 33.353-11.37 43.377-7.84 5.183-17.52 6.749-26.92 7.084-11.642.413-23.505-.933-34.46-5.034-8.801-3.3-21.79-9.504-22.547-20.373-.422-6.01 3.388-11.378 5.447-17.037 4.348-11.924.88-25.203 2.341-37.84C26.505 29.012 39.028 1.406 56.382 6.827c.83.375 1.73.57 2.64.572a5.623 5.623 0 0 0 2.64-1.46 19.888 19.888 0 0 1 11.22-4.102z"/><path fill="#082F49" d="M70.215 123.264a87.71 87.71 0 0 1-30.8-5.157c-14.75-5.509-22.529-12.628-23.118-21.12-.317-4.462 1.584-8.563 3.414-12.531.73-1.593 1.496-3.239 2.086-4.867 2.64-7.146 2.35-14.679 2.068-22.66-.294-4.986-.218-9.986.229-14.96 1.188-9.822 8.228-27.009 18.612-33.74 4.523-2.94 9.205-3.67 13.94-2.192l.527.176a2.904 2.904 0 0 0 3.74-.748l.22-.176A20.725 20.725 0 0 1 72.803.96c9.17-.59 18.41 3.828 24.006 8.176 9.329 7.234 14.565 17.908 15.145 30.862l1.417 31.821c.079 1.76.185 3.52.299 5.35.881 14.565 1.761 29.631-12.065 38.792-6.82 4.515-15.514 6.811-27.368 7.234-1.338.044-2.684.07-4.022.07zM51.937 7.102a15.049 15.049 0 0 0-8.272 2.64c-9.9 6.442-16.72 22.995-17.794 32.464a99.649 99.649 0 0 0-.211 14.678c.273 7.797.554 15.84-2.174 23.33-.616 1.698-1.39 3.379-2.147 4.998-1.813 3.934-3.52 7.656-3.247 11.678.537 7.762 7.92 14.362 22 19.616 10.041 3.749 21.526 5.429 34.127 4.972 11.51-.414 19.924-2.64 26.462-6.944 13.016-8.606 12.136-23.144 11.273-37.216-.105-1.812-.22-3.608-.299-5.376l-1.417-31.822c-.554-12.426-5.552-22.643-14.467-29.55-5.368-4.163-14.168-8.423-22.828-7.85a19.008 19.008 0 0 0-10.7 3.95l-.22.177a5.738 5.738 0 0 1-2.834 1.47 5.659 5.659 0 0 1-2.561-.44l-.493-.16a13.86 13.86 0 0 0-4.198-.66v.045z"/><path fill="url(#a)" d="M126.406 140.821c-3.467-20.328-30.017-43.12-33.036-45.69-2.12-1.76-9.302-2.244-10.34-2.244H56.445c-1.039 0-8.228.466-10.34 2.244-3.019 2.534-29.57 25.362-33.036 45.69a11.759 11.759 0 0 0 2.833 9.909c3.292 3.749 9.68 7.454 31.065 7.454h45.54c21.376 0 27.774-3.705 31.065-7.454a11.754 11.754 0 0 0 2.834-9.909zm-78.19-23.206v23.338c-6.16-.079-14.273-.598-17.019-1.17 2.534-6.266 11.687-15.647 17.02-22.168zm43.069 23.338v-23.338c5.359 6.521 14.485 15.902 17.019 22.168-2.772.572-10.86 1.091-17.02 1.17z"/><path fill="#082F49" d="M92.51 159.061H46.967c-21.956 0-28.363-3.916-31.68-7.753a12.636 12.636 0 0 1-3.045-10.639c3.52-20.637 30.299-43.658 33.335-46.21 2.64-2.191 10.833-2.455 10.912-2.455h26.585c.08 0 8.299.264 10.904 2.455 3.044 2.552 29.815 25.573 33.344 46.21a12.646 12.646 0 0 1-3.045 10.639c-3.406 3.82-9.813 7.753-31.769 7.753zm-4.823-1.76h4.822c21.252 0 27.281-3.617 30.405-7.154a10.913 10.913 0 0 0 2.64-9.179c-3.415-20.02-29.745-42.646-32.728-45.162-1.76-1.505-8.483-2.042-9.777-2.042H56.446c-1.294 0-7.99.537-9.777 2.042-2.992 2.516-29.313 25.142-32.737 45.162a10.879 10.879 0 0 0 2.64 9.179c3.107 3.52 9.144 7.154 30.405 7.154h40.71zm-39.47-15.471c-5.895-.07-14.212-.572-17.186-1.188a.883.883 0 0 1-.642-1.188c1.962-4.857 7.656-11.396 12.672-17.16 1.628-1.874 3.168-3.643 4.488-5.236a.877.877 0 0 1 1.558.554v23.338a.878.878 0 0 1-.264.625.877.877 0 0 1-.625.255zm-15.752-2.728c4.939.567 9.902.884 14.873.951v-20.021c-.933 1.092-1.928 2.227-2.957 3.415-4.576 5.28-9.724 11.167-11.916 15.655zm58.794 2.728a.88.88 0 0 1-.88-.88v-23.338a.881.881 0 0 1 1.558-.554c1.311 1.593 2.851 3.362 4.48 5.227 5.024 5.773 10.709 12.321 12.672 17.169a.89.89 0 0 1 0 .74.885.885 0 0 1-.599.448c-2.983.616-11.29 1.109-17.187 1.188h-.044zm.88-21.798v20.021a147.87 147.87 0 0 0 14.873-.951c-2.2-4.488-7.34-10.401-11.924-15.655-1.03-1.188-2.042-2.332-2.922-3.415h-.026z"/><path fill="#082F49" d="M69.733 109.314a11.09 11.09 0 0 1-11.07-11.07v-5.36a.88.88 0 1 1 1.76 0v5.36a9.32 9.32 0 0 0 18.63 0v-5.36a.88.88 0 1 1 1.76 0v5.36a11.088 11.088 0 0 1-11.08 11.07z"/><path fill="#FECACA" d="M61.1 140.953H46.633v17.231H61.1v-17.231z"/><path fill="#082F49" d="M61.1 159.065H46.632a.88.88 0 0 1-.88-.88v-17.231a.88.88 0 0 1 .88-.88H61.1a.88.88 0 0 1 .88.88v17.231a.88.88 0 0 1-.88.88zm-13.588-1.76h12.707v-15.471H47.512v15.471z"/><path fill="#FECACA" d="M93.598 140.953H79.131v17.231h14.467v-17.231z"/><path fill="#082F49" d="M93.589 159.065H79.13a.88.88 0 0 1-.88-.88v-17.231a.88.88 0 0 1 .88-.88h14.459a.88.88 0 0 1 .88.88v17.231a.88.88 0 0 1-.88.88zm-13.579-1.76h12.699v-15.471H80.01v15.471z"/><path fill="#FECACA" d="M64.328 91.434h11.115v6.415a4.716 4.716 0 0 1-4.717 4.717h-1.663a4.717 4.717 0 0 1-4.717-4.717v-6.415h-.018z"/><path fill="#082F49" d="M70.71 103.438h-1.664a5.602 5.602 0 0 1-5.17-3.455 5.597 5.597 0 0 1-.427-2.142v-6.406a.88.88 0 0 1 .88-.88h11.115a.88.88 0 0 1 .88.88v6.406a5.606 5.606 0 0 1-5.615 5.597zm-5.5-11.123v5.526a3.835 3.835 0 0 0 3.836 3.837h1.663a3.84 3.84 0 0 0 3.855-3.837v-5.526h-9.355z"/><path fill="#FECACA" d="M38.167 71.846c5.954 0 10.78-4.173 10.78-9.32s-4.826-9.319-10.78-9.319-10.78 4.172-10.78 9.32c0 5.146 4.826 9.319 10.78 9.319z"/><path fill="#082F49" d="M38.166 72.714c-6.433 0-11.66-4.567-11.66-10.19 0-5.624 5.227-10.2 11.66-10.2s11.66 4.576 11.66 10.2c0 5.623-5.236 10.19-11.66 10.19zm0-18.63c-5.465 0-9.9 3.784-9.9 8.44 0 4.655 4.4 8.43 9.9 8.43s9.9-3.784 9.9-8.43c0-4.647-4.444-8.44-9.9-8.44z"/><path fill="#FECACA" d="M101.018 71.846c5.954 0 10.781-4.173 10.781-9.32s-4.827-9.319-10.781-9.319c-5.953 0-10.78 4.172-10.78 9.32 0 5.146 4.827 9.319 10.78 9.319z"/><path fill="#082F49" d="M101.018 72.714c-6.433 0-11.66-4.567-11.66-10.19 0-5.624 5.227-10.2 11.66-10.2s11.66 4.576 11.66 10.2c0 5.623-5.227 10.19-11.66 10.19zm0-18.63c-5.465 0-9.9 3.784-9.9 8.44 0 4.655 4.4 8.43 9.9 8.43s9.9-3.784 9.9-8.43c0-4.647-4.444-8.44-9.9-8.44z"/><path fill="#FECACA" d="M69.873 92.883A32.56 32.56 0 0 1 37.365 60.28V45.178c0-7.832 11.924-22.467 19.74-22.467 0 0 1.266 7.41 13.551 13.895 8.598 4.532 20.716 4.832 31.734-2.85v26.523a32.559 32.559 0 0 1-32.517 32.604z"/><path fill="#082F49" d="M69.874 93.765A33.44 33.44 0 0 1 36.486 60.28v-15.1c0-3.925 2.737-9.575 7.146-14.74 4.603-5.395 9.68-8.607 13.473-8.607a.88.88 0 0 1 .88.73c0 .062 1.417 7.102 13.095 13.262 7.374 3.899 19.36 5.21 30.8-2.79a.885.885 0 0 1 .88-.06.88.88 0 0 1 .467.782V60.28a33.44 33.44 0 0 1-33.353 33.485zM56.436 23.627c-7.4.801-18.19 14.52-18.19 21.552V60.28a31.638 31.638 0 0 0 61.01 12.268 31.645 31.645 0 0 0 2.255-12.268V35.393c-11.696 7.419-23.76 5.967-31.258 1.989-10.376-5.456-13.139-11.616-13.817-13.755z"/><path fill="#082F49" d="M69.723 66.563a17.888 17.888 0 0 1-2.922-.246.88.88 0 0 1 .3-1.734c1.497.247 3.025.247 4.523 0 .237-.818-.88-4.11-2.526-7.225a.88.88 0 0 1 .37-1.179.88.88 0 0 1 1.188.37c.818 1.575 3.432 6.873 2.552 8.8a1.549 1.549 0 0 1-1.056.88 10.17 10.17 0 0 1-2.43.334zM46.615 48.076a1.76 1.76 0 1 1 0-3.52l14.354-.185a1.76 1.76 0 1 1 .044 3.52l-14.353.185h-.044zm47.837-.265-14.362-.088a1.76 1.76 0 1 1 0-3.52l14.353.088a1.76 1.76 0 0 1 0 3.52h.009zM51.491 57.88a.88.88 0 0 1-.572-.21.88.88 0 0 1-.097-1.233c.088-.105 2.209-2.57 5.104-2.64a5.815 5.815 0 0 1 4.4 1.928.88.88 0 0 1-1.25 1.24 4.153 4.153 0 0 0-3.088-1.408c-2.112.08-3.82 2.042-3.837 2.06a.88.88 0 0 1-.66.264zm38.976-.003a.88.88 0 0 1-.678-.308s-1.76-1.98-3.837-2.06a4.128 4.128 0 0 0-3.089 1.409.88.88 0 0 1-1.258-1.232 5.807 5.807 0 0 1 4.4-1.928c2.886.115 5.016 2.579 5.104 2.64a.88.88 0 0 1-.106 1.232.88.88 0 0 1-.536.247zM70.744 77.293a21.685 21.685 0 0 1-15.84-7.243.88.88 0 0 1 1.372-1.1c.432.546 10.842 13.13 27.782 2.156a.88.88 0 0 1 .96 1.47c-5.36 3.485-10.165 4.717-14.274 4.717z"/><path fill="url(#b)" d="M48.217 140.953h8.668v16.113"/><path fill="#082F49" d="M56.884 157.947a.88.88 0 0 1-.88-.88v-15.233h-7.788a.88.88 0 1 1 0-1.76h8.668a.88.88 0 0 1 .88.88v16.113a.88.88 0 0 1-.88.88z"/><path fill="url(#c)" d="M91.257 140.953H84.55v16.113"/><path fill="#082F49" d="M84.552 157.947a.88.88 0 0 1-.88-.88v-16.113a.88.88 0 0 1 .88-.88h6.732a.88.88 0 0 1 0 1.76h-5.826v15.233a.876.876 0 0 1-.561.821.865.865 0 0 1-.345.059z"/><path fill="url(#d)" d="M55.098 129.281h29.269v24.746a8.36 8.36 0 0 1-8.36 8.36h-12.55a8.359 8.359 0 0 1-8.36-8.36v-24.746z"/><path fill="#082F49" d="M76.017 163.269H63.459a9.251 9.251 0 0 1-9.24-9.241v-24.746a.88.88 0 0 1 .88-.88h29.27a.88.88 0 0 1 .88.88v24.746a9.252 9.252 0 0 1-9.232 9.241zm-20.038-33.107v23.866a7.487 7.487 0 0 0 7.48 7.481h12.558a7.482 7.482 0 0 0 7.471-7.481v-23.866h-27.51z"/><path fill="#FECACA" d="M58.548 138.129h-6.89a2.552 2.552 0 0 0 0 5.104h6.89a2.552 2.552 0 0 0 0-5.104z"/><path fill="#082F49" d="M58.548 144.114h-6.864a3.435 3.435 0 0 1-3.606-3.428 3.43 3.43 0 0 1 2.24-3.218 3.435 3.435 0 0 1 1.366-.21h6.89a3.435 3.435 0 0 1 3.606 3.428 3.427 3.427 0 0 1-2.24 3.218 3.435 3.435 0 0 1-1.365.21h-.027zm-6.864-5.096a1.671 1.671 0 0 0-1.793 1.668 1.673 1.673 0 0 0 1.793 1.668h6.89a1.671 1.671 0 0 0 1.794-1.668 1.673 1.673 0 0 0-1.794-1.668h-6.89z"/><path fill="#FECACA" d="M58.548 143.117h-6.89a2.552 2.552 0 0 0 0 5.104h6.89a2.552 2.552 0 1 0 0-5.104z"/><path fill="#082F49" d="M58.548 149.094h-6.864a3.435 3.435 0 0 1-3.328-2.074 3.434 3.434 0 0 1 1.962-4.572 3.417 3.417 0 0 1 1.366-.209h6.89a3.417 3.417 0 0 1 2.539.94 3.431 3.431 0 0 1-2.538 5.915h-.027zm-6.864-5.095a1.67 1.67 0 0 0-1.26 2.892 1.67 1.67 0 0 0 1.26.443h6.89a1.67 1.67 0 0 0 1.26-2.892 1.675 1.675 0 0 0-1.26-.443h-6.89z"/><path fill="#FECACA" d="M58.548 148.098h-6.89a2.552 2.552 0 1 0 0 5.104h6.89a2.552 2.552 0 0 0 0-5.104z"/><path fill="#082F49" d="M58.546 154.083h-6.864a3.435 3.435 0 0 1-3.432-3.432 3.434 3.434 0 0 1 3.432-3.432h6.89A3.43 3.43 0 0 1 61 153.078a3.434 3.434 0 0 1-2.426 1.005h-.027zm-6.864-5.113a1.67 1.67 0 0 0-1.182 2.854c.313.314.739.49 1.182.49h6.89a1.67 1.67 0 0 0 1.183-2.854 1.67 1.67 0 0 0-1.182-.49h-6.89z"/><path fill="#FECACA" d="M58.548 153.078h-6.89a2.552 2.552 0 0 0 0 5.104h6.89a2.552 2.552 0 1 0 0-5.104z"/><path fill="#082F49" d="M58.546 159.063h-6.864a3.43 3.43 0 0 1-2.427-5.859 3.435 3.435 0 0 1 2.427-1.005h6.89a3.434 3.434 0 0 1 3.433 3.432 3.432 3.432 0 0 1-3.432 3.432h-.027zm-6.89-5.104a1.67 1.67 0 0 0-1.672 1.672 1.673 1.673 0 0 0 1.672 1.672h6.89a1.674 1.674 0 0 0 1.672-1.672 1.673 1.673 0 0 0-1.672-1.672h-6.89z"/><path fill="#FECACA" d="M87.818 138.129h-6.891a2.552 2.552 0 0 0 0 5.104h6.89a2.552 2.552 0 0 0 0-5.104z"/><path fill="#082F49" d="M87.817 144.114h-6.89a3.436 3.436 0 0 1-3.607-3.428 3.429 3.429 0 0 1 2.24-3.218 3.436 3.436 0 0 1 1.366-.21h6.89a3.436 3.436 0 0 1 3.606 3.428 3.429 3.429 0 0 1-2.24 3.218 3.436 3.436 0 0 1-1.365.21zm-6.89-5.096a1.671 1.671 0 0 0-1.794 1.668 1.673 1.673 0 0 0 1.793 1.668h6.89a1.672 1.672 0 1 0 0-3.336h-6.89z"/><path fill="#FECACA" d="M87.818 143.117h-6.891a2.552 2.552 0 0 0 0 5.104h6.89a2.552 2.552 0 1 0 0-5.104z"/><path fill="#082F49" d="M87.817 149.094h-6.89a3.435 3.435 0 0 1-3.329-2.074 3.434 3.434 0 0 1 3.328-4.781h6.89a3.417 3.417 0 0 1 2.539.94 3.431 3.431 0 0 1-2.538 5.915zm-6.89-5.095a1.67 1.67 0 0 0-1.26 2.892 1.67 1.67 0 0 0 1.26.443h6.89a1.67 1.67 0 1 0 0-3.335h-6.89z"/><path fill="#FECACA" d="M87.818 148.098h-6.891a2.552 2.552 0 1 0 0 5.104h6.89a2.552 2.552 0 0 0 0-5.104z"/><path fill="#082F49" d="M87.817 154.083h-6.89a3.434 3.434 0 0 1-3.433-3.432 3.433 3.433 0 0 1 3.432-3.432h6.89a3.43 3.43 0 0 1 2.428 5.859 3.435 3.435 0 0 1-2.427 1.005zm-6.89-5.104a1.67 1.67 0 0 0-1.183 2.854c.314.314.739.49 1.182.49h6.89A1.67 1.67 0 0 0 89 149.469a1.67 1.67 0 0 0-1.182-.49h-6.89z"/><path fill="#FECACA" d="M87.818 153.078h-6.891a2.552 2.552 0 0 0 0 5.104h6.89a2.552 2.552 0 1 0 0-5.104z"/><path fill="#082F49" d="M87.817 159.063h-6.89a3.43 3.43 0 0 1-2.428-5.859 3.434 3.434 0 0 1 2.427-1.005h6.89a3.435 3.435 0 0 1 3.433 3.432 3.432 3.432 0 0 1-3.432 3.432zm-6.89-5.104a1.67 1.67 0 0 0-1.673 1.672 1.673 1.673 0 0 0 1.672 1.672h6.89a1.674 1.674 0 0 0 1.673-1.672 1.673 1.673 0 0 0-1.672-1.672h-6.89z"/><path fill="url(#e)" d="M84.367 129.513c0 .695-.642 1.346-1.76 1.909-2.482 1.232-7.295 2.077-12.84 2.077-5.544 0-10.375-.88-12.857-2.077-1.144-.563-1.76-1.214-1.76-1.909 0-2.191 6.556-3.978 14.644-3.978 8.087 0 14.573 1.787 14.573 3.978z"/><path fill="#082F49" d="M69.742 134.377c-5.482 0-10.56-.828-13.244-2.165-1.514-.74-2.28-1.655-2.28-2.702 0-3.335 8.044-4.858 15.524-4.858 7.48 0 15.506 1.523 15.506 4.858 0 1.047-.766 1.962-2.28 2.702-2.683 1.337-7.76 2.165-13.226 2.165zm0-7.921c-8.906 0-13.763 2.051-13.763 3.098 0 .229.343.651 1.293 1.126 2.465 1.224 7.243 1.981 12.47 1.981 5.228 0 9.989-.757 12.453-1.981.95-.475 1.293-.88 1.293-1.126 0-1.091-4.858-3.142-13.746-3.142v.044z"/><path fill="#082F49" d="M82.581 131.422c-2.481 1.232-7.295 2.076-12.84 2.076-5.543 0-10.375-.88-12.856-2.076 2.481-1.241 7.313-2.086 12.857-2.086s10.358.845 12.84 2.086z"/><path fill="#082F49" d="M69.741 134.38c-5.483 0-10.56-.828-13.244-2.165a.885.885 0 0 1-.493-.792.879.879 0 0 1 .484-.784c2.64-1.346 7.762-2.182 13.253-2.182 5.491 0 10.56.836 13.2 2.182a.882.882 0 0 1 0 1.576c-2.657 1.337-7.735 2.165-13.2 2.165zm-10.358-2.957a45.336 45.336 0 0 0 20.698 0 45.007 45.007 0 0 0-20.698 0z"/><path fill="#fff" d="M64.276 123.872a.888.888 0 0 1-.634-.273.88.88 0 0 1 0-1.241c.304-.239.556-.539.74-.88.114-.405-.3-.986-.564-1.285-.132-.158-.282-.317-.422-.475a6.373 6.373 0 0 1-1.206-1.619 3.39 3.39 0 0 1 .8-3.855.882.882 0 0 1 1.44.665.88.88 0 0 1-.225.602 1.633 1.633 0 0 0-.413 1.857c.236.425.532.813.88 1.153l.466.528a3.143 3.143 0 0 1 .88 2.922 3.88 3.88 0 0 1-1.135 1.654.882.882 0 0 1-.607.247zm11.976.335a.879.879 0 0 1-.572-1.549 2.072 2.072 0 0 0 .88-1.663 3.569 3.569 0 0 0-.88-1.522 6.636 6.636 0 0 1-1.038-1.761 4.697 4.697 0 0 1 .792-4.127.88.88 0 1 1 1.47.959 3.16 3.16 0 0 0-.599 2.588c.199.458.463.885.783 1.267.593.67 1 1.483 1.18 2.358a3.758 3.758 0 0 1-1.487 3.221.876.876 0 0 1-.529.229zm-5.657-.571a.88.88 0 0 1-.775-.458.878.878 0 0 1 .344-1.197 1.456 1.456 0 0 0 .695-1.513 6.086 6.086 0 0 0-.96-2.165 7.182 7.182 0 0 1-1.187-2.948 6.98 6.98 0 0 1 .73-3.204c.148-.429.444-.791.836-1.02a.88.88 0 0 1 .818 1.557v.132a5.45 5.45 0 0 0-.598 2.376c.128.781.429 1.524.88 2.174a7.505 7.505 0 0 1 1.214 2.869 3.248 3.248 0 0 1-1.575 3.282.976.976 0 0 1-.422.115z"/><path fill="url(#f)" d="m28.723 24.579 9.38-.528 5.421 7.612-3.572 8.695c-.942 2.288-4.048 2.226-5.712-.106l-7.286-10.244c-1.672-2.34-.704-5.288 1.768-5.43z"/><path fill="#082F49" d="M37.417 42.917a4.867 4.867 0 0 1-3.89-2.156l-7.294-10.244a4.788 4.788 0 0 1-.59-4.805 3.521 3.521 0 0 1 3.027-2.015l9.381-.528a.88.88 0 0 1 .766.37l5.42 7.612a.88.88 0 0 1 .106.88l-3.581 8.695a3.468 3.468 0 0 1-2.887 2.2l-.458-.01zm-8.615-17.46a1.76 1.76 0 0 0-1.54 1.012 3.098 3.098 0 0 0 .44 3.028l7.26 10.243a3.071 3.071 0 0 0 2.72 1.4 1.76 1.76 0 0 0 1.46-1.118l3.397-8.246-4.866-6.82-8.87.501z"/><path fill="url(#g)" d="m46.56 11.88-3.582 8.694 5.43 7.621 9.381-.537c2.473-.14 3.432-3.089 1.76-5.43l-7.286-10.243c-1.655-2.332-4.761-2.394-5.703-.105z"/><path fill="#082F49" d="M48.409 29.075a.881.881 0 0 1-.722-.37l-5.42-7.62a.88.88 0 0 1-.098-.88l3.573-8.695a3.52 3.52 0 0 1 2.896-2.2 4.787 4.787 0 0 1 4.347 2.13l7.286 10.243a4.76 4.76 0 0 1 .59 4.805 3.467 3.467 0 0 1-3.018 2.05l-9.39.529-.044.008zm-4.4-8.615 4.857 6.829 8.897-.51a1.76 1.76 0 0 0 1.514-1.012 3.071 3.071 0 0 0-.44-3.028L51.55 12.496a3.08 3.08 0 0 0-2.71-1.4 1.76 1.76 0 0 0-1.47 1.118l-3.36 8.246z"/><path fill="url(#h)" d="m41.043 20.036-2.817 2.005a3.115 3.115 0 0 0-.732 4.345l3.46 4.86a3.115 3.115 0 0 0 4.344.733l2.818-2.006a3.115 3.115 0 0 0 .731-4.344l-3.46-4.861a3.115 3.115 0 0 0-4.344-.732z"/><path fill="#082F49" d="M43.5 33.422a3.987 3.987 0 0 1-3.256-1.672l-3.458-4.858a3.995 3.995 0 0 1 .941-5.579l2.816-1.998a3.988 3.988 0 0 1 5.57.933l3.46 4.858a3.997 3.997 0 0 1-.942 5.58l-2.816 1.997a3.925 3.925 0 0 1-2.315.739zm-.616-13.086a2.199 2.199 0 0 0-1.293.414l-2.816 1.997a2.253 2.253 0 0 0-.529 3.125l3.459 4.857a2.228 2.228 0 0 0 3.115.52l2.816-1.998a2.226 2.226 0 0 0 .528-3.124l-3.52-4.858a2.235 2.235 0 0 0-1.76-.933z"/><path fill="#082F49" d="M48.164 24.658a.88.88 0 0 1-.431-1.655l4.1-2.288a.882.882 0 1 1 .88 1.531l-4.1 2.297a.88.88 0 0 1-.449.115zm-1.531-2.149a.88.88 0 0 1-.352-.08.88.88 0 0 1-.458-1.152l2.64-6.081a.881.881 0 0 1 1.61.713l-2.64 6.072a.88.88 0 0 1-.8.528zM32.456 29.57a.885.885 0 0 1-.765-1.444.883.883 0 0 1 .598-.317l5.86-1.144a.897.897 0 0 1 .344 1.76l-5.861 1.144a.604.604 0 0 1-.176 0zm3.932 4.577a.879.879 0 0 1-.634-.273.882.882 0 0 1 0-1.25l3.336-3.168a.88.88 0 0 1 1.205 1.277L36.97 33.9a.88.88 0 0 1-.58.246zm54.896 84.349a.884.884 0 0 1-.792-1.268c0-.061 2.887-5.931 1.127-9.284a.874.874 0 0 1 .09-.986.867.867 0 0 1 .604-.318.885.885 0 0 1 .863.486c2.183 4.153-.968 10.613-1.1 10.886a.887.887 0 0 1-.791.484zm-43.068.001a.878.878 0 0 1-.792-.484c-.132-.273-3.282-6.733-1.1-10.886a.878.878 0 0 1 1.188-.37.882.882 0 0 1 .37 1.188c-1.76 3.353 1.091 9.223 1.118 9.284a.881.881 0 0 1-.396 1.18.894.894 0 0 1-.388.088zm-7.666 39.45a.88.88 0 0 1-.88-.88v-16.386a.878.878 0 0 1 .88-.88.878.878 0 0 1 .88.88v16.386a.88.88 0 0 1-.88.88zm59.219 0a.88.88 0 0 1-.88-.88v-16.386a.878.878 0 0 1 1.502-.622.879.879 0 0 1 .258.622v16.386a.88.88 0 0 1-.88.88z"/><path fill="#fff" d="m37.939 81.805-4.876 6.16v4.787a7.92 7.92 0 0 1-7.92 7.92H9.356a7.92 7.92 0 0 1-7.92-7.92v-6.265a7.92 7.92 0 0 1 7.92-7.92h15.77a7.92 7.92 0 0 1 7.33 4.901l5.483-1.663z"/><path fill="#082F49" d="M25.125 101.545H9.355a8.799 8.799 0 0 1-8.8-8.8v-6.257a8.8 8.8 0 0 1 8.8-8.8h15.77a8.8 8.8 0 0 1 7.806 4.725l4.76-1.434a.88.88 0 0 1 .942 1.39l-4.69 5.879v4.479a8.8 8.8 0 0 1-8.818 8.818zM9.355 79.448a7.04 7.04 0 0 0-7.04 7.04v6.257a7.04 7.04 0 0 0 7.04 7.04h15.77a7.04 7.04 0 0 0 7.04-7.04v-4.788a.88.88 0 0 1 .185-.545l3.141-3.943-2.798.836a.88.88 0 0 1-1.065-.501 7.04 7.04 0 0 0-6.52-4.4l-15.753.044z"/><path fill="#EF4444" d="M17.24 95.887a13.835 13.835 0 0 1-.88-.88l-2.588-2.27a21.458 21.458 0 0 1-1.663-1.566 5.844 5.844 0 0 1-1.117-1.681 5.457 5.457 0 0 1-.352-1.338 7.176 7.176 0 0 1-.053-1.232 3.317 3.317 0 0 1 2.261-3.08 3.52 3.52 0 0 1 3.75.88c.242.24.454.51.633.8v.062l.053-.07a4.154 4.154 0 0 1 1.593-1.505 3.46 3.46 0 0 1 1.874-.37c.726.041 1.419.32 1.971.793a3.379 3.379 0 0 1 1.153 2.032c.049.413.049.83 0 1.241-.025.444-.1.884-.22 1.311a5.095 5.095 0 0 1-.96 1.76 13.116 13.116 0 0 1-1.478 1.488l-2.332 2.147c-.537.475-1.065.968-1.593 1.452l-.052.026z"/><path fill="#082F49" d="M17.222 96.75a.88.88 0 0 1-.572-.21l-.3-.282-.606-.554-2.112-1.857-.467-.414a22.75 22.75 0 0 1-1.76-1.628 6.865 6.865 0 0 1-1.293-1.945 6.628 6.628 0 0 1-.405-1.557c-.06-.458-.08-.92-.062-1.382a4.188 4.188 0 0 1 2.869-3.88 4.4 4.4 0 0 1 4.629 1.09l.07.062c.363-.36.782-.657 1.241-.88a4.347 4.347 0 0 1 2.34-.466 4.25 4.25 0 0 1 3.917 3.52c.07.477.085.962.044 1.443a7.353 7.353 0 0 1-.255 1.505 5.941 5.941 0 0 1-1.127 2.076 13.525 13.525 0 0 1-1.575 1.593l-1.082.95-1.285 1.127c-.37.326-.73.66-1.091.994l-.493.45a.969.969 0 0 1-.625.246zm-3.168-12.205a2.938 2.938 0 0 0-.96.167 2.465 2.465 0 0 0-1.654 2.28 5.76 5.76 0 0 0 .053 1.082c.043.38.137.754.282 1.109.233.528.558 1.01.959 1.425a21.36 21.36 0 0 0 1.593 1.505l.466.414c.713.616 1.417 1.24 2.121 1.865l.334.3 1.048-.96 1.293-1.135 1.083-.941c.494-.423.953-.885 1.373-1.382.36-.433.632-.932.8-1.47a4.87 4.87 0 0 0 .185-1.109 4.092 4.092 0 0 0 0-1.038 2.482 2.482 0 0 0-2.323-2.094 2.473 2.473 0 0 0-1.4.272 3.25 3.25 0 0 0-1.258 1.188.959.959 0 0 1-.765.45.88.88 0 0 1-.766-.38l-.053-.07a3.039 3.039 0 0 0-.493-.624 2.694 2.694 0 0 0-1.918-.854z"/><defs><linearGradient id="a" x1="12.889" x2="132.37" y1="158.184" y2="106.173" gradientUnits="userSpaceOnUse"><stop stop-color="#38BDF8"/><stop offset="1" stop-color="#B6F2CC"/></linearGradient><linearGradient id="b" x1="48.217" x2="58.859" y1="157.066" y2="155.635" gradientUnits="userSpaceOnUse"><stop stop-color="#38BDF8"/><stop offset="1" stop-color="#B6F2CC"/></linearGradient><linearGradient id="c" x1="84.551" x2="92.843" y1="157.066" y2="156.203" gradientUnits="userSpaceOnUse"><stop stop-color="#38BDF8"/><stop offset="1" stop-color="#B6F2CC"/></linearGradient><linearGradient id="d" x1="55.098" x2="87.954" y1="129.281" y2="158.33" gradientUnits="userSpaceOnUse"><stop stop-color="#5BA7D9"/><stop offset=".344" stop-color="#AE8EB8"/><stop offset=".661" stop-color="#FFC28A"/><stop offset="1" stop-color="#EA8378"/></linearGradient><linearGradient id="e" x1="55.15" x2="59.192" y1="125.535" y2="140.362" gradientUnits="userSpaceOnUse"><stop stop-color="#5BA7D9"/><stop offset=".344" stop-color="#AE8EB8"/><stop offset=".661" stop-color="#FFC28A"/><stop offset="1" stop-color="#EA8378"/></linearGradient><linearGradient id="f" x1="26.119" x2="44.096" y1="24.051" y2="41.447" gradientUnits="userSpaceOnUse"><stop stop-color="#5BA7D9"/><stop offset=".344" stop-color="#AE8EB8"/><stop offset=".661" stop-color="#FFC28A"/><stop offset="1" stop-color="#EA8378"/></linearGradient><linearGradient id="g" x1="42.978" x2="60.964" y1="10.199" y2="27.597" gradientUnits="userSpaceOnUse"><stop stop-color="#5BA7D9"/><stop offset=".344" stop-color="#AE8EB8"/><stop offset=".661" stop-color="#FFC28A"/><stop offset="1" stop-color="#EA8378"/></linearGradient><linearGradient id="h" x1="35.688" x2="50.84" y1="23.848" y2="24.648" gradientUnits="userSpaceOnUse"><stop stop-color="#5BA7D9"/><stop offset=".344" stop-color="#AE8EB8"/><stop offset=".661" stop-color="#FFC28A"/><stop offset="1" stop-color="#EA8378"/></linearGradient></defs></svg>